<?xml version="1.0" encoding="UTF-8" standalone="no"?>
<!DOCTYPE svg PUBLIC "-//W3C//DTD SVG 1.1//EN" "http://www.w3.org/Graphics/SVG/1.1/DTD/svg11.dtd">
<!-- Page 1 -->
<svg x="0" y="0" width="763" height="763" viewBox="0 0 763 763" version="1.1" 
    xmlns="http://www.w3.org/2000/svg" 
    xmlns:xlink="http://www.w3.org/1999/xlink" style="display: block;margin-left: auto;margin-right: auto;">
    <defs>
        <style type="text/css">
            <![CDATA[

.g1_1{
fill: white;
}


]]>
        </style>
    </defs>
    <path d="M0,0L0,763L763,763L763,0 Z " fill="transparent" stroke="none" />
    <path d="M564.7,413.1L517.1,381.3l47.6,-31.9ZM400.3,548.2l0,-88.8l82.5,-55.2l66.7,44.5Zm-19,-121.9l-67.4,-45l67.4,-45.1l67.3,45.1ZM362.2,548.2L213,448.7l66.7,-44.5l82.5,55.2ZM197.8,349.4l47.6,31.9l-47.6,31.8ZM362.2,214.3l0,88.8l-82.5,55.3L213,313.8Zm38.1,0l149.2,99.5l-66.7,44.6L400.3,303.1Zm202.3,97c0,-0.3,-0.1,-0.6,-0.1,-0.9c-0.1,-0.5,-0.2,-1,-0.3,-1.6c-0.1,-0.3,-0.2,-0.6,-0.3,-0.9c-0.2,-0.4,-0.3,-0.9,-0.5,-1.4c-0.2,-0.3,-0.3,-0.6,-0.5,-0.9c-0.2,-0.4,-0.4,-0.9,-0.6,-1.3c-0.2,-0.3,-0.4,-0.6,-0.5,-0.8c-0.3,-0.4,-0.6,-0.8,-0.8,-1.2c-0.3,-0.3,-0.5,-0.6,-0.7,-0.8c-0.3,-0.4,-0.6,-0.7,-0.9,-1.1c-0.3,-0.2,-0.5,-0.5,-0.8,-0.7c-0.4,-0.3,-0.7,-0.6,-1.1,-0.9c-0.3,-0.2,-0.5,-0.4,-0.8,-0.7c-0.2,0,-0.3,-0.1,-0.4,-0.2L391.8,162.9c-6.4,-4.3,-14.7,-4.3,-21.1,0l-202.5,135c-0.1,0.1,-0.2,0.2,-0.3,0.2c-0.3,0.3,-0.6,0.5,-0.9,0.7c-0.4,0.3,-0.7,0.6,-1.1,0.9c-0.3,0.2,-0.5,0.5,-0.7,0.7c-0.4,0.4,-0.7,0.7,-1,1.1c-0.2,0.2,-0.4,0.5,-0.6,0.8c-0.3,0.4,-0.6,0.8,-0.8,1.2c-0.2,0.2,-0.4,0.5,-0.6,0.8c-0.2,0.4,-0.4,0.9,-0.6,1.3c-0.2,0.3,-0.3,0.6,-0.5,0.9c-0.2,0.5,-0.3,1,-0.5,1.4c-0.1,0.3,-0.2,0.6,-0.3,0.9c-0.1,0.6,-0.2,1.1,-0.3,1.6c0,0.3,-0.1,0.6,-0.1,0.9c-0.2,0.8,-0.2,1.6,-0.2,2.4l0,135.1c0,0.8,0,1.6,0.2,2.5c0,0.2,0.1,0.5,0.1,0.8c0.1,0.5,0.2,1,0.3,1.6c0.1,0.3,0.2,0.6,0.3,0.9c0.2,0.5,0.3,0.9,0.5,1.4c0.2,0.3,0.3,0.6,0.5,0.9c0.2,0.4,0.4,0.9,0.6,1.3c0.2,0.3,0.4,0.6,0.6,0.9c0.2,0.4,0.5,0.7,0.8,1.1c0.2,0.3,0.4,0.6,0.6,0.8c0.3,0.4,0.6,0.7,1,1.1c0.2,0.2,0.4,0.5,0.7,0.7c0.4,0.3,0.7,0.6,1.1,0.9c0.3,0.2,0.6,0.5,0.9,0.7c0.1,0,0.2,0.1,0.3,0.2l202.5,135c3.2,2.2,6.9,3.2,10.6,3.2c3.6,0,7.3,-1,10.5,-3.2l202.5,-135c0.1,-0.1,0.2,-0.2,0.4,-0.2c0.3,-0.2,0.5,-0.5,0.8,-0.7c0.4,-0.3,0.7,-0.6,1.1,-0.9c0.3,-0.2,0.5,-0.5,0.8,-0.7c0.3,-0.4,0.6,-0.7,0.9,-1.1c0.2,-0.2,0.4,-0.5,0.7,-0.8c0.2,-0.4,0.5,-0.7,0.8,-1.1c0.1,-0.3,0.3,-0.6,0.5,-0.9c0.2,-0.4,0.4,-0.9,0.6,-1.3c0.2,-0.3,0.3,-0.6,0.5,-0.9c0.2,-0.5,0.3,-0.9,0.5,-1.4c0.1,-0.3,0.2,-0.6,0.3,-0.9c0.1,-0.6,0.2,-1.1,0.3,-1.6c0,-0.3,0.1,-0.6,0.1,-0.8c0.2,-0.9,0.2,-1.7,0.2,-2.5l0,-135.1c0,-0.8,0,-1.6,-0.2,-2.4Z" class="g1_1" />
</svg>