<svg width="1250" height="772.5" xmlns="http://www.w3.org/2000/svg" id="svg3336" class="">
    <defs id="defs3340">
        <clipPath id="clipPath4120">
            <path id="rect4122" d="M11.34 10.158h1231.09v745.96H11.34z" class="TqlsSYUC_0"></path>
        </clipPath>
        <clipPath id="clipPath4124">
            <path id="rect4126" d="M11.34 10.158h1231.09v745.96H11.34z" class="TqlsSYUC_1"></path>
        </clipPath>
    </defs>
    <g id="g3408" stroke="white" fill="none" stroke-width="2px">
        <path d="M0 386.88V0h1255.04v773.76H0V386.88z" id="path3424" class="TqlsSYUC_2"></path>
        <path d="M0 386.88V0h1255.04v773.76H0V386.88zm1150.532 21.78c-.417-.416-1.5-.46-2.406-.098-1 .4-.703.696.76.756 1.322.054 2.063-.242 1.646-.658zm-12.21-5.503c-1.036-.668-2.448-1.214-3.138-1.214s-.408.546.627 1.214c1.037.667 2.45 1.213 3.14 1.213s.407-.546-.628-1.213zm-5.02-1.252c0-.69-1.554-1.213-3.452-1.165-3.058.08-3.166.21-.94 1.165 3.427 1.47 4.39 1.47 4.39 0zm-9.204-4.317c0-1.45-5.413-4.763-8.367-5.12-2.417-.294-6.274-2.19-6.274-3.084 0-1.068-5.527-3.34-5.776-2.375-.07.273-2.473-1.617-5.338-4.2-2.865-2.58-5.913-4.703-6.774-4.713-1.06-.013-.97-.395.275-1.18 1.476-.932 1.167-1.417-1.57-2.454-4.11-1.56-4.556-3.09-.584-2.006 2.46.67 2.537.592.6-.618-1.22-.764-3.37-1.026-4.772-.58-2.148.68-2.302 1.135-.976 2.892 1.35 1.787 1.313 1.852-.248.458-1.002-.895-1.892-2.163-1.98-2.817-.085-.654-.226-1.662-.312-2.24-.15-1.006-4.513-3.395-6.98-3.823-.648-.112-1.3.63-1.45 1.65-.313 2.122 6.323 7.537 12.352 10.08 2.243.948 7.14 4.014 10.884 6.816 3.743 2.8 7.05 4.85 7.35 4.55.3-.3 1.19.02 1.98.706 1.017.886 14.363 8.226 17.855 9.82.057.027.105-.767.105-1.764zM529.38 385.673c5.658-2.73 10.287-5.514 10.287-6.188 0-1.955 15.53-6.04 33.886-8.917 26.153-4.097 30.81-5.518 35.84-10.943 2.38-2.57 5.458-5.858 6.836-7.308 1.377-1.45 2.505-3.233 2.505-3.962 0-.73 2.965-3.456 6.59-6.058 3.623-2.602 8.893-6.8 11.71-9.328 9.772-8.77 26.892-12.614 37.12-8.333 4.296 1.798 4.758 1.764 7.216-.52 1.445-1.342 2.627-2.985 2.627-3.65s1.412-4.13 3.138-7.698c1.725-3.57 3.137-7.23 3.137-8.133 0-1.778 1.11-2.045 6.903-1.657 2.07.14 3.355-.163 2.854-.67-.5-.51-3.608-1.037-6.903-1.175-3.296-.138-5.283-.01-4.416.285.868.294 1.262 1.044.877 1.666-.385.623-2.193.156-4.018-1.037-2.793-1.826-6.456-2.17-23.154-2.17-10.91 0-19.835-.43-19.835-.96 0-.526-4.66-.906-10.353-.843-5.695.064-34.922-.36-64.95-.943-30.026-.583-54.78-.63-55.01-.104-.232.525-9.41.955-20.396.955-12.48 0-19.975.47-19.975 1.252 0 .77-6.392 1.26-16.63 1.272-9.2.01-15.9.478-15 1.05 2.438 1.54-51.924 3.246-103.914 3.258-25.194.005-43.267.358-40.16.783 4.76.652 4.118.803-4.08.962-5.35.103-9.726.664-9.726 1.246 0 .58 2.207.953 4.904.825 3.26-.154 4.718.25 4.35 1.21-.356.924 1.15 1.465 4.195 1.51 12.422.176 15.417.498 15.417 1.657 0 .73-4.183 1.252-10.04 1.252-5.857 0-10.04.52-10.04 1.252 0 .688-2.26 1.252-5.02 1.252-2.762 0-5.02.563-5.02 1.252 0 .736-4.37 1.252-10.595 1.252-5.826 0-10.855.423-11.175.94-.32.515 5.718.9 13.418.85 7.7-.047 14.678.422 15.507 1.043.83.622 2.665.764 4.08.316 1.413-.448 2.57-.28 2.57.376 0 .654 1.41 1.46 3.137 1.79 3.905.743 4.097-.747.314-2.443-2.43-1.09-2.058-1.266 2.676-1.272 3.974-.004 4.93.31 3.45 1.137-1.126.63-2.047 1.624-2.047 2.21 0 1.258 6.876 3.817 10.254 3.817 1.292 0 4.53 1.44 7.198 3.202 5.566 3.674 19.562 8.23 22.19 7.225.975-.372 1.773-.12 1.773.563 0 .682 1.272 1.512 2.825 1.845 1.553.333 10.448 2.403 19.767 4.6 9.318 2.195 27.11 5.35 39.534 7.012 23.733 3.173 31.307 4.66 37.598 7.388 2.1.91 8.054 3.466 13.23 5.68 5.178 2.215 11.955 5.556 15.06 7.425 3.107 1.87 7.626 4.16 10.04 5.09 2.417.93 4.96 2.316 5.65 3.08 4.437 4.912 16.277 9.35 25.166 9.433 4.902.047 8.678-1.067 16.63-4.903zm-31.59-3.533c-.336-.54.437-.984 1.716-.984 1.28 0 2.052.443 1.716.984-.335.54-1.107.984-1.716.984-.61 0-1.38-.443-1.716-.984zm-34.68-19.05c-1.036-.666-1.318-1.212-.628-1.212.69 0 2.103.546 3.138 1.213 1.035.67 1.318 1.215.627 1.215-.69 0-2.102-.546-3.137-1.214zm-81.912-18.935c.85-.855 1.864-1.24 2.25-.855.386.386-.31 1.086-1.548 1.556-1.79.68-1.933.536-.702-.7zm-10.96-2.348c-1.132-.73-1.287-1.222-.39-1.233.823-.01 1.845.544 2.27 1.233.964 1.554.53 1.554-1.88 0zm-9.728-.863c1.208-.315 3.185-.315 4.393 0 1.208.315.22.572-2.196.572-2.416 0-3.405-.257-2.197-.572zm-19.767-6.143c-1.38-1.053-4.033-1.7-5.895-1.437-1.862.263-3.13.065-2.816-.44.313-.505-.14-1.165-1.007-1.466-.867-.3 2.094-.358 6.58-.126 7.953.41 13.806 2.3 13.806 4.457 0 .588-1.383.164-3.075-.94-1.69-1.107-4.092-1.77-5.334-1.473-1.908.456-1.772.75.88 1.902 1.727.75 2.29 1.382 1.256 1.403-1.035.02-3.012-.824-4.393-1.88zM309.18 322.07c-.796-.506 4.396-1.06 11.536-1.23 7.62-.18 13.3.208 13.755.94.906 1.46-23.023 1.735-25.29.29zm375.41-10.365c-.445-.72-.112-2.145.74-3.17 1.26-1.513 1.103-2.22-.833-3.77-2.26-1.81-2.236-1.837.44-.543 3.056 1.477 3.612 3.15 1.484 4.46-.736.455-1.036 1.615-.665 2.578.787 2.047.01 2.343-1.165.445zm439.926 75.877c0-.992-.526-2.128-1.168-2.525-1.492-.92-2.993 1.425-1.97 3.077 1.155 1.863 3.138 1.514 3.138-.552zm-19.924-14.472c.087-.69.228-1.957.314-2.817.095-.954 2.24-1.626 5.49-1.72 8.275-.244 8.708-.357 6.59-1.723-2.128-1.37-10.937-1.515-13.834-.225-1.753.782-1.964 1.7-1.418 6.173.227 1.856 2.632 2.12 2.858.313zm-32.093-7.2c-.188-1.205.286-2.662 1.05-3.238.825-.62.24-.796-1.434-.43-1.554.34-2.51.107-2.122-.517.923-1.49 5.7-1.42 8.086.116 1.035.667 1.317 1.23.627 1.25-.69.022-.528.5.36 1.062.89.563 6.537 1.092 12.55 1.177 8.03.113 10.158-.164 8.007-1.04-5.273-2.15-2.34-4.296 6.792-4.967l8.687-.638-10.354-1.057c-5.696-.582-10.355-1.562-10.355-2.18 0-.616-2.4-1.22-5.334-1.34l-5.333-.218 5.334-.48c5.81-.522 6.412-1.15 3.286-3.43-1.894-1.384-1.894-1.496 0-1.496 1.127 0 2.05.47 2.05 1.044 0 .573.604 1.043 1.344 1.043 1.857 0 4.986-3.282 4.034-4.232-.427-.426.023-.81 1-.855.98-.043.426-.62-1.227-1.278-1.653-.66-3.994-.887-5.202-.505-1.207.383-3.035-.142-4.06-1.165-1.027-1.024-2.306-1.465-2.844-.982-.537.484-.63.27-.203-.478.426-.747 4.315-1.485 8.644-1.64 4.33-.157 8.045-.458 8.26-.67.212-.214-7.117-.753-16.288-1.2-42.71-2.08-43.4-2.153-44.063-4.677-.515-1.963-1.834-2.35-8.013-2.35-4.194 0-8.117-.677-9.06-1.565-1.33-1.252-1.778-1.252-2.238 0-.737 2.003-10.888 2.07-14.57.095-1.507-.808-4.435-1.623-6.505-1.81-2.07-.188-11.107-.946-20.08-1.686-25.53-2.105-30.173-2.912-29.8-5.184.277-1.692-3.728-2.182-29.466-3.61-20.378-1.132-30.288-2.154-31.373-3.237-1.013-1.01-1.113-1.738-.276-2.017.72-.24-2.642-.43-7.473-.42-6.567.01-8.21.33-6.513 1.273 1.25.693 4.184 2.845 6.52 4.782 5.552 4.6 22.593 15.363 26.067 16.463 1.494.474 7.363.006 13.042-1.04 19.578-3.603 26.775-3.615 37.097-.06 5.096 1.755 10.046 2.892 11 2.528.952-.365 1.597-.02 1.432.768-.164.787 5.35 4.322 12.252 7.854 13.072 6.69 26.955 14.92 28.164 16.695 1.674 2.458 5.462 2.535 9.828.2 2.553-1.365 5.954-2.482 7.557-2.482 1.602 0 5.435-.633 8.516-1.407 7.26-1.824 13.76-.066 23.79 6.435 8.595 5.573 9.27 5.787 8.81 2.798zm-60.256-12.746c-.398-.642-.243-1.462.344-1.823.586-.363 1.066.16 1.066 1.164 0 2.11-.396 2.296-1.41.658zm34.04-2.174c-1.523-1.52-.866-2.854 1.047-2.122 1.037.396 1.884 1.224 1.884 1.84 0 1.312-1.73 1.48-2.93.282zm13.99-.02c.906-.362 1.988-.317 2.405.098.416.417-.325.712-1.648.658-1.462-.06-1.76-.357-.758-.756zm-1.02-7.91c0-.688 1.163-1.25 2.584-1.25 1.42 0 2.235.562 1.81 1.25-.428.69-1.59 1.253-2.586 1.253-.994 0-1.808-.563-1.808-1.25zm-157.03-17.215c-.08-.516-.057-1.43.053-2.032.11-.6-.67-.758-1.734-.35-2.666 1.02-2.436-.078.325-1.552 1.887-1.007 2.26-.706 2.26 1.834 0 2.85-.573 4.184-.903 2.1zm31.526-4.143c0-.73.565-.978 1.255-.552.69.426 1.255 1.022 1.255 1.326 0 .304-.565.552-1.255.552s-1.255-.597-1.255-1.326zm14.825.47c.906-.36 1.99-.316 2.406.1.418.416-.324.71-1.647.657-1.462-.06-1.76-.357-.758-.756zm-58.895-1.96c-.078-.173-.334-1.963-.57-3.977l-.425-3.664 2.604 2.597c1.43 1.43 2.22 3.22 1.75 3.977-.753 1.214-2.97 1.917-3.36 1.065zm2.654-2.192c0-.69-.565-1.252-1.255-1.252-.692 0-1.256.563-1.256 1.252 0 .69.564 1.252 1.255 1.252.69 0 1.254-.563 1.254-1.252zm-8.535-2.755c-2.183-2.177-1.87-2.945 1.3-3.183 2.22-.167 2.418.04.943.985-1.65 1.058-1.65 1.34.015 2.43 1.036.678 1.29 1.24.565 1.252-.725.01-1.995-.657-2.824-1.484zM177.273 337.22c-.862-.346-2.274-.346-3.137 0-.863.35-.157.633 1.57.633 1.724 0 2.43-.284 1.567-.632zm6.59-.422c1.654-.71 1.868-1.1.627-1.144-1.034-.038-2.73.477-3.764 1.144-2.294 1.48-.313 1.48 3.137 0zm30.748-9.05c0-.734-.798-.612-1.883.286-1.036.857-1.883 1.754-1.883 1.992 0 .24.847.11 1.882-.287 1.035-.397 1.882-1.294 1.882-1.993zm12.55-2.297c0-.558.99-1.01 2.197-1 1.207.01 4.423-.555 7.146-1.253 2.723-.698 5.405-.99 5.96-.646.557.343 1.012.047 1.012-.66 0-1.408-9.018-.894-11.535.658-.846.52-2.808 1.083-4.363 1.248-1.554.165-3.78.834-4.95 1.487-1.76.982-1.55 1.186 1.204 1.186 1.83 0 3.328-.46 3.328-1.02zm20.708-3.676c.427-.69.178-1.252-.553-1.252-.73 0-1.33.563-1.33 1.252 0 .69.25 1.252.554 1.252.306 0 .904-.563 1.33-1.252zm8.158 0c0-.69-1.553-1.196-3.45-1.127l-3.453.125 3.138 1.002c1.726.55 3.28 1.06 3.45 1.127.174.07.315-.437.315-1.126zm705.034-.86c-1.2-.314-3.46-.325-5.02-.025-1.562.298-.58.554 2.18.568 2.762.014 4.04-.23 2.84-.544zm-140.976-9.023c.382-.615-.66-1.037-2.315-.938-1.654.1-2.747.602-2.427 1.12.803 1.296 3.9 1.18 4.743-.18zm-9.33-2.636c0-.69-.598-1.252-1.33-1.252-.73 0-.98.563-.553 1.252.427.688 1.025 1.252 1.33 1.252.304 0 .553-.564.553-1.252zm35.14-1.856c0-.184-1.47-.335-3.27-.335-2.092 0-2.7.353-1.683.98 1.357.836 4.954.37 4.954-.645zm-41.945-.92c-1.144-.64-2.814-.64-3.96 0-1.474.824-.968 1.106 1.98 1.106 2.95 0 3.456-.282 1.98-1.105zm50.393.767c-.418-.416-1.5-.46-2.406-.1-1 .4-.704.698.758.758 1.323.054 2.065-.242 1.648-.658zm-42.332-1.747c-1.034-.668-3.293-1.167-5.02-1.11l-3.137.107 3.138 1.003c1.727.55 3.986 1.05 5.02 1.108 1.674.093 1.674-.03 0-1.108zm23.252-1.01c-.386-.386-1.4-.002-2.25.854-1.23 1.237-1.086 1.38.703.7 1.237-.47 1.934-1.17 1.547-1.555zm37.906 1.505c-.417-.416-1.5-.46-2.405-.1-1.002.4-.704.698.758.758 1.324.055 2.065-.24 1.648-.657zm-74.047-1.252c-.416-.415-1.5-.46-2.405-.098-1 .4-.704.697.758.757 1.324.053 2.065-.243 1.648-.66zm-90.022-8.007c0-.688-.25-1.252-.554-1.252-.304 0-.902.565-1.33 1.253-.425.69-.176 1.252.555 1.252.73 0 1.328-.563 1.328-1.252z" id="path3422" class="TqlsSYUC_3"></path>
        <path d="M0 386.88V0h1255.04v364.342h-9.8c-6.674 0-10.578-.585-12.237-1.837-2.915-2.2-7.686-2.482-8.35-.495-.344 1.03-1.153 1.053-2.928.085-3.314-1.807-18.4-5.264-22.97-5.264-2.03 0-3.988-.777-4.353-1.73-.937-2.432-9.644-3.348-9.644-1.014 0 1.097-.754 1.472-2 .996-1.1-.42-3.358-1.106-5.02-1.522-1.66-.416-3.02-1.26-3.02-1.873 0-.614-1.38-1.116-3.064-1.116-1.685 0-3.412-.562-3.84-1.25-.426-.69-4.45-1.253-8.94-1.253-4.492 0-9.4-.664-10.908-1.476-1.508-.81-5.142-1.33-8.076-1.156-3.324.198-5.334-.217-5.334-1.1 0-.91-2.36-1.323-6.59-1.152-3.623.147-8-.278-9.725-.943-1.725-.667-5.113-1.163-7.53-1.103-2.415.06-4.957-.568-5.647-1.395-1-1.198-42.935-4.196-58.688-4.196-1.04 0-2.184-1.126-2.545-2.504-.563-2.146-1.712-2.504-8.053-2.504-4.194 0-8.117-.677-9.06-1.565-1.33-1.252-1.778-1.252-2.238 0-.737 2.003-10.888 2.07-14.57.095-1.507-.808-4.435-1.623-6.505-1.81-2.07-.188-11.107-.946-20.08-1.686-25.53-2.105-30.173-2.912-29.8-5.184.277-1.692-3.728-2.182-29.466-3.61-20.378-1.132-30.288-2.154-31.373-3.237-1.013-1.01-1.113-1.738-.276-2.017.72-.24-2.642-.43-7.473-.42-6.567.01-8.21.33-6.513 1.273 1.25.693 4.184 2.845 6.52 4.782 5.552 4.6 22.593 15.363 26.067 16.463 1.494.474 7.363.006 13.042-1.04 19.578-3.603 26.775-3.615 37.097-.06 5.096 1.755 10.046 2.892 11 2.528.952-.365 1.597-.02 1.432.768-.164.787 5.35 4.322 12.252 7.854 13.072 6.69 26.955 14.92 28.164 16.695 1.636 2.402 5.49 2.516 10.455.307 8.608-3.83 21.22-5.617 26.883-3.813 5.147 1.64 18.823 9.73 24.726 14.627 1.997 1.656 6.515 4.45 10.04 6.21 3.526 1.76 7.6 4.284 9.05 5.61 4.68 4.277 33.504 18.845 41.914 21.185 4.487 1.25 7.593 2.313 6.903 2.365-.69.05-.536.55.344 1.107.88.557 10.48.9 21.336.76 17.93-.23 19.22-.105 14.088 1.358-5.2 1.483-4.406 1.574 10.04 1.147 31.993-.947 47.3-.934 56.163.047l9.1 1.007V773.76H0V386.88zm561.704 238.474c-1.34-1.01-3.88-1.86-5.647-1.883-3.917-.054-12.703-2.18-30.56-7.397-17.16-5.013-23.962-5.796-33.798-3.894-8.923 1.723-19.37 4.69-22.612 6.418-1.198.64-3.034 1.16-4.08 1.16-1.043 0-1.898.565-1.898 1.253 0 .69 3.247 1.325 7.216 1.413 3.97.088 8.63.31 10.354.494 1.726.184 14.15.72 27.61 1.192 21.448.75 53.425 2.438 55.223 2.915.345.092-.47-.66-1.81-1.67zm-38.678-236.48c2.755-.97 9.18-4.275 14.277-7.343 9.856-5.933 13.196-6.922 36.878-10.924 29.345-4.958 29.227-4.922 34.725-10.524 8.758-8.922 9.83-10.192 9.83-11.64 0-.777 2.965-3.543 6.59-6.145 3.623-2.602 8.893-6.8 11.71-9.328 9.772-8.77 26.892-12.614 37.12-8.333 4.296 1.798 4.758 1.764 7.216-.52 1.445-1.342 2.627-2.985 2.627-3.65s1.412-4.13 3.138-7.698c1.725-3.57 3.137-7.23 3.137-8.133 0-1.778 1.11-2.045 6.903-1.657 2.07.14 3.355-.163 2.854-.67-.5-.51-3.608-1.037-6.903-1.175-3.296-.138-5.283-.01-4.416.285.868.294 1.262 1.044.877 1.666-.385.623-2.193.156-4.018-1.037-2.793-1.826-6.456-2.17-23.154-2.17-10.91 0-19.835-.43-19.835-.96 0-.526-4.66-.906-10.353-.843-5.695.064-34.922-.36-64.95-.943-30.026-.583-54.78-.63-55.01-.104-.232.525-9.41.955-20.396.955-12.48 0-19.975.47-19.975 1.252 0 .77-6.392 1.26-16.63 1.272-9.2.01-15.9.478-15 1.05 2.305 1.457-49.827 3.19-103.914 3.45-53.007.258-114.643 2.558-115.254 4.302-.233.667-7.02 1.194-15.374 1.194-11.118 0-14.96.4-14.975 1.565-.013 1.044-.425.94-1.236-.312-1.08-1.67-1.22-1.67-1.254 0-.034 1.67-.174 1.67-1.255 0-1.08-1.67-1.22-1.67-1.254 0-.034 1.67-.174 1.67-1.255 0-.81-1.252-1.222-1.357-1.235-.313-.013 1.04-2.12 1.565-6.294 1.565-3.45 0-6.275.443-6.275.984 0 .903-14.71 1.426-54.788 1.947-8.39.11-14.992.622-14.672 1.14.32.515 2.525.938 4.9.938 2.375 0 4.32.46 4.32 1.025 0 1.272-7.6 1.132-9.702-.18-.85-.528-2.543-.44-3.765.194-1.222.636-7.523 1.26-14 1.39-8.347.165-12.307.76-13.593 2.044-1 .996-2.334 1.49-2.97 1.1-.634-.392-1.153-.05-1.153.76 0 .904-1.24 1.236-3.21.86-2.367-.45-3.037-.16-2.548 1.11.504 1.31-.08 1.238-2.437-.304-3.87-2.528-4.007-1.006-.276 3.046 2.516 2.734 2.55 2.915.314 1.667-4.717-2.633-7.154-5.033-6.38-6.282.425-.687.112-1.657-.696-2.155-.918-.566-1.133-.363-.574.54.55.887.02 1.453-1.375 1.464-1.25.01-3.118.59-4.154 1.29-1.387.937-.892 1.07 1.883.506 3.033-.617 3.4-.48 1.882.706-1.624 1.268-1.585 1.375.277.78 1.187-.38 2.93.078 3.872 1.018 3.504 3.496 16.03 10.79 17.245 10.042.69-.427 1.102-.066.913.8-.516 2.36 26.2 14.1 31.907 14.022 2.552-.034 6.6-1.215 8.992-2.624 2.392-1.41 7.08-2.86 10.418-3.226 3.338-.365 9.766-1.525 14.286-2.577 9.086-2.116 23.863-4.415 32.57-5.07 3.108-.232 9.038-1.275 13.18-2.317 4.14-1.042 9.078-1.87 10.97-1.842 3.064.048 14.854-3.57 21.66-6.647 1.38-.625 5.49-1.685 9.133-2.357 3.643-.67 7.8-1.85 9.24-2.618 1.44-.768 5.364-1.376 8.722-1.35 3.357.026 6.42-.462 6.805-1.085.413-.666 1.905-.676 3.626-.023 1.754.665 5.13.61 8.428-.134 7.754-1.752 25.415-.256 39.717 3.363 6.69 1.693 12.846 3.078 13.68 3.078.832 0 4.233 1.656 7.558 3.68 10.562 6.432 55.386 17.41 84.485 20.69 10.01 1.13 21.022 2.69 24.473 3.467 8.225 1.854 34.533 12.695 43.3 17.845 16.2 9.514 24.708 14.153 28.24 15.397 5.44 1.917 15.838 1.802 21.636-.24zm161.564-77.17c-.445-.72-.112-2.146.74-3.17 1.26-1.514 1.103-2.22-.833-3.77-2.26-1.81-2.236-1.838.44-.544 3.056 1.477 3.612 3.15 1.484 4.46-.736.455-1.036 1.615-.665 2.578.787 2.047.01 2.343-1.165.445zM57.732 323.025c0-.69-.598-1.252-1.33-1.252-.73 0-.98.563-.553 1.252.426.69 1.024 1.252 1.328 1.252.305 0 .554-.563.554-1.252zm903.33-2.112c-1.2-.314-3.46-.325-5.02-.025-1.562.298-.58.554 2.18.568 2.762.014 4.04-.23 2.84-.544zm-140.976-9.023c.382-.615-.66-1.037-2.315-.938-1.654.1-2.747.602-2.427 1.12.803 1.296 3.9 1.18 4.743-.18zm-9.33-2.636c0-.69-.598-1.252-1.33-1.252-.73 0-.98.563-.553 1.252.427.688 1.025 1.252 1.33 1.252.304 0 .553-.564.553-1.252zm35.14-1.856c0-.184-1.47-.335-3.27-.335-2.092 0-2.7.353-1.683.98 1.357.836 4.954.37 4.954-.645zm-41.945-.92c-1.144-.64-2.814-.64-3.96 0-1.474.824-.968 1.106 1.98 1.106 2.95 0 3.456-.282 1.98-1.105zm50.393.767c-.418-.416-1.5-.46-2.406-.1-1 .4-.704.698.758.758 1.323.054 2.065-.242 1.648-.658zm-42.332-1.747c-1.034-.668-3.293-1.167-5.02-1.11l-3.137.107 3.138 1.003c1.727.55 3.986 1.05 5.02 1.108 1.674.093 1.674-.03 0-1.108zm23.252-1.01c-.386-.386-1.4-.002-2.25.854-1.23 1.237-1.086 1.38.703.7 1.237-.47 1.934-1.17 1.547-1.555zm37.906 1.505c-.417-.416-1.5-.46-2.405-.1-1.002.4-.704.698.758.758 1.324.055 2.065-.24 1.648-.657zm-74.047-1.252c-.416-.415-1.5-.46-2.405-.098-1 .4-.704.697.758.757 1.324.053 2.065-.243 1.648-.66zm-90.022-8.007c0-.688-.25-1.252-.554-1.252-.304 0-.902.565-1.33 1.253-.425.69-.176 1.252.555 1.252.73 0 1.328-.563 1.328-1.252zm541.863 111.855c.864-.348 2.276-.348 3.14 0 .862.347.156.63-1.57.63-1.725 0-2.43-.283-1.57-.63zm-100.088-1.675c-1.462-.943-1.095-1.218 1.643-1.233 2.034-.012 3.197.51 2.75 1.233-.964 1.554-1.982 1.554-4.393 0zm75.067.396c.905-.362 1.987-.318 2.405.098.417.416-.325.712-1.648.658-1.462-.06-1.76-.357-.758-.757zm21.256-41.346c1.553-.3 4.095-.3 5.648 0 1.553.298.282.542-2.824.542s-4.377-.244-2.824-.542zm-344.97-40.12c-.082-.517-.06-1.432.05-2.033.11-.6-.67-.758-1.733-.35-2.666 1.02-2.436-.078.325-1.552 1.887-1.007 2.26-.706 2.26 1.834 0 2.85-.573 4.184-.903 2.1zm31.524-4.144c0-.73.565-.978 1.255-.552.69.426 1.255 1.022 1.255 1.326 0 .304-.565.552-1.255.552s-1.255-.597-1.255-1.326zm14.825.47c.906-.36 1.99-.316 2.406.1.418.416-.324.71-1.647.657-1.462-.06-1.76-.357-.758-.756zm-58.895-1.96c-.078-.173-.334-1.963-.57-3.977l-.425-3.664 2.604 2.597c1.43 1.43 2.22 3.22 1.75 3.977-.753 1.214-2.97 1.917-3.36 1.065zm2.654-2.192c0-.69-.565-1.252-1.255-1.252-.692 0-1.256.563-1.256 1.252 0 .69.564 1.252 1.255 1.252.69 0 1.254-.563 1.254-1.252zm-8.535-2.755c-2.183-2.177-1.87-2.945 1.3-3.183 2.22-.167 2.418.04.943.985-1.65 1.058-1.65 1.34.015 2.43 1.036.678 1.29 1.24.565 1.252-.725.01-1.995-.657-2.824-1.484z" id="path3420" class="TqlsSYUC_4"></path>
        <path d="M0 543.27V312.78l8.246 4.522c5.836 3.2 10.93 4.894 17.423 5.795 14.16 1.965 25.284 5.608 31.888 10.444 6.86 5.024 27.78 15.675 37.35 19.016 6.356 2.22 6.507 2.212 13.805-.622 4.058-1.577 8.79-3.03 10.516-3.227 1.725-.198 9.63-1.796 17.57-3.55 7.938-1.755 20.43-3.773 27.764-4.484 7.332-.712 15.803-1.843 18.825-2.513 3.02-.67 8.6-1.887 12.396-2.704 3.797-.816 7.468-1.91 8.158-2.427.69-.52 7.468-2.478 15.06-4.352 7.594-1.874 14.37-3.817 15.06-4.317.69-.498 5.774-1.04 11.296-1.202 5.523-.162 12.54-.845 15.594-1.52 12.09-2.667 46.03 3.47 60.684 10.976 12.238 6.268 52.983 16.087 82.485 19.878 26.27 3.375 28.78 3.905 41.517 8.76 10.58 4.033 38.903 18.306 44.453 22.4 5.972 4.406 14.482 7.23 22.04 7.31 7.584.08 16.854-3.442 26.955-10.244 6.033-4.06 11.36-5.905 21.915-7.587 38.25-6.092 43.63-7.5 48.625-12.726 4.487-4.694 9.107-10.727 9.107-11.892 0-1.277 6.875-6.874 11.295-9.196 1.726-.906 4.832-3.563 6.903-5.905 7.22-8.16 27.036-12.782 37.184-8.67 2.328.945 4.945 1.46 5.816 1.144 1.437-.52 7.83-12.48 7.83-14.65 0-1.86 4.24-5.05 6.87-5.163 3.265-.142 8.074-3.3 14.69-9.65 3.252-3.12 6.058-4.695 8.37-4.695 1.91 0 4.572-.827 5.912-1.838 3.39-2.558 7.295-2.358 9.893.506 2.94 3.24 9.147 5.396 10.28 3.568.553-.893.235-1.015-.914-.35-.97.562-1.357.572-.86.024 1.907-2.107 10.523-1.88 16.04.422 19.173 8 29.84 11.48 42.672 13.915 3.106.59 8.104 1.983 11.107 3.094 5.19 1.92 5.83 1.89 12.975-.642 7.608-2.695 11.787-2.73 21.412-.176 3.994 1.06 5.188.87 7.9-1.258 2.625-2.06 4.24-2.353 9.1-1.643 7 1.024 15.095 4.368 18.295 7.56 4.544 4.534 26.598 18.337 30.282 18.954 2.07.346 8-.26 13.178-1.345 14.295-3 27.85-2.598 38.898 1.15 5.07 1.72 10.11 3.93 11.202 4.91 1.09.98 4.838 2.9 8.326 4.27 3.49 1.368 11.68 5.925 18.2 10.126 17.366 11.19 16.42 10.868 22.824 7.775 3.03-1.464 6.737-2.662 8.235-2.662 1.497 0 5.204-.662 8.236-1.47 4.918-1.313 6.244-1.16 12.255 1.418 3.708 1.59 11.413 6.056 17.123 9.924 5.71 3.867 13.107 8.48 16.437 10.247 3.33 1.77 7.227 4.305 8.66 5.636 3.56 3.308 33.28 18.48 41.378 21.122 3.616 1.18 6.897 2.666 7.29 3.302.395.636 8.167 1.213 17.272 1.282 9.55.072 15.228.523 13.418 1.066-2.957.888-2.866.997 1.583 1.896 2.598.524 5.987.585 7.532.134 5.036-1.468 35.026-2.213 53.324-1.325l17.884.868v222.296l-5.647-.472c-13.633-1.14-22.343-2.366-34.514-4.86-10.346-2.12-38.664-5.63-56.405-6.995-18.675-1.437-22.192-1.37-37.024.716-16.26 2.287-24.545 4.605-24.545 6.87 0 1.69 5.165 2.3 32.004 3.782 13.114.723 34.01 1.924 46.435 2.667 12.425.744 33.015 1.62 45.756 1.95 12.742.327 24.14 1.116 25.333 1.752 1.192.636 3.616 1.157 5.387 1.157h3.22V773.76H0V543.27zm613.64 93.882c-1.054-1.97-5.43-5.283-10.733-8.13-3.725-2-18.576-5.012-36.256-7.355-18.408-2.44-24.09-3.637-40.16-8.466-14.467-4.346-29.86-4.964-43.55-1.748-37.056 8.705-66.22 12.848-98.898 14.05-21.047.772-41.055 3.05-38.642 4.396 1.033.577 10.292 1.34 20.574 1.698 43.12 1.495 102.31 3.208 131.022 3.79 33.17.673 58.72 1.643 81.578 3.1 7.938.505 19.318.865 25.29.8 9.566-.106 10.728-.36 9.777-2.134zM1245 326.156c0-1.44-1.594-1.878-6.813-1.878-4.383 0-7.485-.67-8.696-1.878-1.21-1.208-4.31-1.878-8.686-1.878-3.743 0-8.443-.518-10.444-1.15-6.83-2.16-22.928-2.59-24.86-.664-1.5 1.498-1.856 1.482-2.47-.115-1.293-3.36-6.748-4.258-28.388-4.675-14.41-.278-21.833-.9-22.85-1.912-.85-.848-4.94-1.5-9.41-1.5-4.348 0-7.906-.526-7.906-1.17 0-.642-5.507-1.392-12.237-1.665-15.26-.618-47.235-4.72-47.797-6.13-.23-.578-6.188-1.05-13.24-1.05-8.535 0-13.38-.524-14.486-1.566-1.33-1.252-1.778-1.252-2.238 0-.632 1.716-10.407 2.222-10.407.54 0-1.237-22.824-4-32.945-3.99-3.98.004-7.217-.554-7.217-1.245 0-.783-7.53-1.253-20.08-1.253-11.044 0-20.08-.482-20.08-1.072 0-1.06-8.335-1.78-46.437-4.017-10.7-.63-24.748-1.49-31.22-1.913-8.556-.56-12.024-.358-12.705.74-.71 1.147-1.58 1.17-3.597.092-3.362-1.795-29.85-3.256-56.272-3.102-15.956.093-20.474-.244-20.982-1.565-.9-2.342-29.583-2.456-29.612-.118-.013 1.094-.296 1.147-.94.175-.508-.765-4.857-1.492-9.665-1.615-4.81-.124-9.045-.68-9.414-1.237-1.016-1.535-27.064-3.156-49.617-3.09-11.802.037-20.414-.444-20.887-1.165-1.158-1.765-158.943-2.675-161.05-.93-1.087.9-6.887.953-18.387.172-22.738-1.544-190.836-.564-191.88 1.12-1.017 1.642-47.48 2.248-60.553.788-8.572-.957-9.727-.845-9.727.94 0 1.113-.14 2.062-.313 2.108-.173.046-4.69.364-10.04.706-6.425.41-9.727.17-9.727-.71 0-1.763-9.7-1.725-10.29.04-.312.934-8.358 1.362-25.205 1.34-14.42-.016-24.746.456-24.746 1.134 0 .64-2.26 1.163-5.02 1.163s-5.02-.538-5.02-1.196c0-.664-4.475-1.188-10.04-1.176-5.523.013-10.04.45-10.04.972 0 1.805-25.805 3.92-47.74 3.912-19.138-.006-22.622.303-26.678 2.366-2.566 1.305-4.978 1.868-5.36 1.252-.38-.617-2.92-1.12-5.64-1.12H0V0h1255.04v328.034h-5.02c-3.626 0-5.02-.52-5.02-1.878z" id="path3418" class="TqlsSYUC_5"></path>
        <path d="M0 544.01c0-126.36.236-229.748.525-229.748.29 0 4.65 1.972 9.69 4.382 5.043 2.41 11.04 4.382 13.327 4.382 6.62 0 25.18 5.094 29.694 8.15 8.85 5.99 22.16 13.226 33.458 18.185 12.957 5.69 17.03 5.896 26.06 1.324 2.526-1.278 6.004-2.325 7.73-2.326 1.726 0 5.448-.628 8.272-1.393 10.052-2.724 19.42-4.292 38.682-6.47 6.842-.776 13.798-1.924 15.456-2.553 1.658-.63 4.782-1.144 6.94-1.144 2.16 0 9.04-1.636 15.293-3.636 21.983-7.034 30.625-9 44.478-10.124 7.69-.623 14.55-1.484 15.245-1.913 4.137-2.55 46.582 6.094 55.813 11.366 10.922 6.24 50.22 15.677 83.46 20.044 12.77 1.677 25.52 3.592 28.333 4.256 7.575 1.788 29.796 11.364 41.788 18.008 5.78 3.202 10.81 5.822 11.177 5.822.37 0 2.42 1.317 4.555 2.927 5.734 4.322 15.37 7.583 22.607 7.65 6.883.063 16.482-3.73 26.49-10.468 6.127-4.126 14.004-6.412 32.6-9.462 28.188-4.624 32.123-5.65 37.184-9.71 2.672-2.14 4.86-4.625 4.86-5.518 0-.894 1.128-2.228 2.51-2.965 1.38-.737 2.51-2.173 2.51-3.192 0-2.204 7.44-9.24 9.83-9.292.918-.02 4.504-2.847 7.967-6.284 9.93-9.853 25.99-13.82 37.443-9.248 4.607 1.84 5.295 1.847 7.246.085 1.186-1.07 3.284-4.867 4.662-8.437 2.692-6.973 7.158-11.51 10.186-10.352 1.04.4 2.98-.467 4.362-1.948 1.368-1.465 3.053-2.665 3.744-2.665.69 0 3.5-2.28 6.24-5.072 2.742-2.79 5.52-4.744 6.17-4.342.653.402 3.257-.132 5.788-1.187 5.084-2.12 10.57-2.536 10.57-.803 0 .614 2.28 2.026 5.066 3.14 4.657 1.858 5.382 1.858 8.97.008 3.653-1.885 4.276-1.855 9.68.457 16.816 7.194 19.543 8.112 40.29 13.563 3.797.998 9.937 2.76 13.646 3.915 6.543 2.04 6.976 2.02 14.668-.658 9.463-3.295 11.984-3.393 18.954-.738 5.112 1.948 5.474 1.92 9.795-.744 4.15-2.558 4.983-2.65 11.05-1.226 7 1.643 15.302 5.362 16.58 7.426.428.69 6.538 5.064 13.578 9.72l12.802 8.47 9.412-.21c5.177-.113 11.003-.817 12.946-1.564 9.705-3.73 34.46.14 44.16 6.903 2.07 1.442 5.728 3.29 8.128 4.1 3.628 1.23 13.766 6.99 33.268 18.908 2.743 1.677 3.554 1.59 8.77-.94 3.162-1.53 7.222-2.785 9.02-2.785 1.8 0 5.475-.658 8.165-1.462 4.63-1.382 5.472-1.168 15.617 3.963 5.897 2.984 13.363 7.512 16.59 10.063 3.225 2.55 8.69 6.143 12.14 7.982 3.452 1.838 8.535 4.926 11.296 6.86 5.286 3.707 27.838 15.255 39.533 20.247 5.655 2.413 9.966 3.082 23.846 3.696 9.32.414 15.25.897 13.178 1.075l-3.765.323 3.138 1.275c1.725.702 5.68.92 8.785.48 9.464-1.33 43.71-1.98 58.673-1.113l14.12.82V631.946l-9.1-.548c-5.003-.302-15.875-1.61-24.158-2.906-26.57-4.158-33.495-5.02-53.967-6.714-22.538-1.865-46.74-1.008-65.262 2.31-6.213 1.114-14.966 2.568-19.453 3.232-4.487.664-9.288 1.724-10.668 2.357-6.674 3.056-15.574 5.104-22.187 5.104-4.515 0-7.307.53-7.307 1.39 0 .88 1.724 1.162 4.707.77 2.588-.34 10.354.14 17.257 1.063 6.902.925 21.304 1.98 32.003 2.343 20.65.7 37.167 1.585 46.437 2.484 3.106.3 12.068.625 19.915.718 7.847.094 15.742.73 17.545 1.414 1.802.683 3.43.785 3.615.225.358-1.075 16.35-.903 24.814.268 5.647.78 29.187 1.834 39.22 1.755l6.59-.052v126.6H0V544.01zm618.42 101.316c8.213-.924 9.77-2.26 5.02-4.31-1.552-.672-5.93-3.498-9.725-6.28-11.287-8.274-12.113-8.51-47.927-13.712-14.28-2.074-27.397-4.315-29.15-4.98-1.75-.664-9.175-2.676-16.495-4.47-14.38-3.523-20.662-3.493-38.835.185-41.905 8.48-59.502 10.66-99.98 12.38-9.433.402-18.187.923-19.454 1.16-1.268.235-5.976.805-10.463 1.265-15.403 1.582-35.768 4.694-37.022 5.657-.69.53-2.832 1.34-4.758 1.8-5.7 1.36-2.62 3.62 3.65 2.683 3.026-.452 5.5-.366 5.5.193 0 .56 9.743 1.223 21.65 1.476 11.907.253 24.19.643 27.297.867 3.106.226 20.614.78 38.906 1.235 18.292.454 33.847 1.302 34.565 1.885.72.583 27.827 1.343 60.242 1.69 32.415.344 61.195 1.168 63.956 1.83 5.345 1.28 39.935.92 53.025-.554zm404.413-11.153c.704-.434 1.28-.313 1.28.268 0 1.005 4.896 1.19 13.178.5l3.766-.315-3.138-1.288c-3.24-1.33-12.846-4.23-19.453-5.874-4.064-1.012-21.005 2.803-21.754 4.9-.23.642-1.25 1.17-2.27 1.17-1.018 0-1.59.42-1.27.938.69 1.117 27.812.844 29.663-.297zm-837.087-3.834c0-.22-1.728-.348-3.84-.288-2.136.06-3.19.51-2.372 1.015 1.324.816 6.212.244 6.212-.728zm-14.057-.47c1.67-.948 1.317-1.125-1.632-.814-2.07.218-4.048-.034-4.393-.56-.345-.527-8.433-1.29-17.974-1.7-9.54-.407-17.878-1.068-18.527-1.468-1.742-1.074-25.52-3.368-35.663-3.44-8.17-.06-17.326 1.593-19.202 3.464-2.253 2.247 4.377 3.235 19.517 2.906 9.146-.198 16.63.04 16.63.532 0 .49 2.53.72 5.622.507 3.093-.213 7.753-.05 10.354.36 8.328 1.312 43.045 1.476 45.27.214zm992.647-217.454c-.417-.416-1.5-.46-2.405-.098-1 .4-.704.696.758.756 1.323.054 2.064-.24 1.647-.657zm88.193-140.634c0-.64-.887-2.048-1.972-3.13-1.514-1.51-4.72-1.968-13.805-1.968-9.29 0-11.834-.375-11.834-1.747 0-1.277-2.712-1.988-10.048-2.635-5.526-.488-10.327-1.34-10.67-1.892-.342-.552.508-.71 1.89-.35 2.998.783 3.57-2.72.63-3.845-1.036-.396-1.883-.116-1.883.623 0 .918-3.18 1.062-10.042.456-5.592-.494-10.04-.4-10.04.21 0 .605-2.26 1.1-5.02 1.1s-5.02-.436-5.02-.97c0-.53-2.212-.966-4.916-.966-2.703 0-5.108-.577-5.344-1.282-.24-.714-6.947-1.63-15.165-2.07-13.208-.705-14.737-1.027-14.737-3.1 0-2.124-1.265-2.312-15.534-2.312-10.4 0-16.934-.576-19.767-1.74-2.6-1.07-12.096-2.09-24.627-2.648-18.826-.836-20.394-1.087-20.394-3.267 0-2.524-1.856-3.18-3.138-1.11-.426.688-.064 1.25.805 1.25 1.134 0 1.197.385.223 1.356-1.262 1.26-5.937-.35-7.93-2.73-.345-.412-7.084-1.11-14.976-1.55-7.892-.438-14.67-1.286-15.06-1.883-.392-.596-11.725-1.478-25.185-1.96-13.46-.48-24.662-1.408-24.892-2.06-.23-.654-1.75-1.188-3.377-1.188-1.628 0-3.308-.563-3.735-1.252-.427-.69-6.028-1.252-12.47-1.252-7.604 0-13.287-.662-16.242-1.894-4.523-1.885-4.546-1.878-4.546 1.252 0 3.453-3.03 4.364-4.22 1.27-.574-1.496-3.267-1.88-13.207-1.88-7.686 0-12.656-.51-12.93-1.327-.26-.777-5.615-1.503-12.926-1.752-7.604-.258-12.663-.963-12.943-1.802-.575-1.72-4.016-1.828-4.016-.125 0 .73-4.184 1.253-10.04 1.253-5.857 0-10.04-.522-10.04-1.252 0-1.914-19.705-1.615-20.593.314-.396.86-.405.297-.02-1.252l.7-2.817H803.31c-12.606 0-20.165.47-20.165 1.252 0 1.84-9.732 1.547-10.353-.313-.403-1.208-11.894-1.66-50.307-1.98-29.14-.242-49.783-.89-49.783-1.564 0-.633-2.26-1.15-5.02-1.15-3.915 0-5.038-.484-5.1-2.192-.06-1.68-.345-1.533-1.215.626-1.488 3.693-5.964 3.693-7.452 0-.81-2.013-1.158-2.218-1.215-.718-.073 1.948-6.95 2.085-95.045 1.883-72.757-.168-95.083.13-95.467 1.28-.365 1.092-1.4 1.156-3.826.236-4.076-1.546-115.944-1.537-116.94.01-.373.58-11.66 1.313-25.08 1.627-17.086.4-24.55 1.012-24.892 2.04-.34 1.015-5.297 1.465-16.147 1.465-10.12 0-15.383-.442-14.882-1.252.47-.756-1.24-1.252-4.318-1.252-2.802 0-5.094.564-5.094 1.252 0 .73-4.15 1.252-9.936 1.252-5.464 0-10.124.514-10.354 1.143-.35.954-35.52 2.39-62.856 2.568-5.833.038-7.217.44-7.217 2.1 0 1.74-1.052 1.945-6.904 1.342-5.066-.522-7.38-.235-8.694 1.077-2.01 2.005-4.06 2.323-4.69.728-.23-.583-3.372-1.4-6.98-1.816-4.858-.56-7.035-.285-8.383 1.06-2.097 2.092-4.51 2.393-4.51.563 0-.688-2.258-1.252-5.02-1.252-4.043 0-5.02.45-5.02 2.312 0 2.118-1.66 2.372-19.93 3.05-13.78.512-21.377 1.344-24.626 2.698-5.85 2.438-5.645 2.458-5.645-.547 0-2.998.187-2.977-5.494-.61-4.06 1.693-4.546 1.693-4.546 0 0-2.307.052-2.305-5.18-.153-2.6 1.07-12.097 2.09-24.628 2.647L0 238.173V0h1255.04v136.472c0 90.147-.426 136.473-1.255 136.473-.69 0-1.255-.524-1.255-1.163zm-70.282-17.618c0-.69-1.13-1.252-2.51-1.252s-2.51.563-2.51 1.252c0 .69 1.13 1.252 2.51 1.252s2.51-.563 2.51-1.252zm-235.32-22.537c-.427-.688.105-1.252 1.18-1.252 1.077 0 1.957.564 1.957 1.252 0 .69-.53 1.252-1.18 1.252-.65 0-1.53-.564-1.957-1.253zM803.226 221.61c0-.688 2.54-1.25 5.647-1.25s5.648.562 5.648 1.25c0 .69-2.54 1.253-5.647 1.253-3.106 0-5.647-.563-5.647-1.252z" id="path3416" class="TqlsSYUC_6"></path>
        <path d="M0 544.01c0-126.36.378-229.748.84-229.748.462 0 3.906 1.726 7.654 3.836 4.866 2.74 10.098 4.335 18.3 5.578 15.808 2.396 22.05 4.5 30.95 10.427 4.203 2.8 14.25 8.35 22.327 12.332 16.412 8.09 23.082 9.093 32.023 4.813 2.634-1.26 6.245-2.45 8.027-2.646 1.78-.195 6.97-1.257 11.528-2.36 4.56-1.102 18.172-3.392 30.252-5.088 31.736-4.456 34.77-5.023 45.182-8.44 19.19-6.296 29.848-8.67 43.595-9.707 7.757-.585 14.612-1.378 15.235-1.762 1.7-1.05 27.002 2.574 38.435 5.504 5.522 1.414 13.994 4.492 18.826 6.838 5.334 2.59 16.92 6.223 29.493 9.248 28.71 6.907 31.06 7.36 50.202 9.637 28.318 3.37 36.155 5.473 57.786 15.5 10.232 4.742 28.746 14.737 31.28 16.886 2.977 2.524 11.697 5.57 18.536 6.476 5.434.72 7.404.26 16.125-3.752 5.464-2.514 11.96-5.968 14.437-7.675 6.618-4.563 12.207-5.904 44.444-10.668 4.832-.713 11.328-2.036 14.435-2.938 5.882-1.708 13.805-7.64 13.805-10.334 0-.855 1.13-2.158 2.51-2.895 1.38-.737 2.524-2.306 2.542-3.487.018-1.185 2.972-4.076 6.59-6.45 3.605-2.364 8.84-6.59 11.634-9.39 3.7-3.71 7.445-5.858 13.806-7.924 10.316-3.35 16.23-3.54 23.23-.746 6.276 2.505 6.958 1.993 12.803-9.617 3.414-6.782 4.678-8.185 7.847-8.71 4.405-.73 9.45-3.99 15.023-9.704 2.274-2.33 5.27-4.088 7.017-4.113 1.677-.025 4.46-.85 6.186-1.834 4.043-2.306 9.582-2.373 10.446-.127.37.964 2.686 2.415 5.147 3.225 3.662 1.206 5.17 1.127 8.3-.432 3.512-1.747 4.3-1.703 9.524.53 3.134 1.34 6.357 2.44 7.162 2.442.806.002 4.037 1.308 7.182 2.9 3.144 1.59 8.51 3.594 11.922 4.45 17.84 4.478 21.814 5.535 27.928 7.428 6.44 1.993 6.926 1.97 14.67-.727 9.575-3.335 10.318-3.364 18.378-.734 6.122 1.997 6.432 1.977 11.266-.734l4.97-2.787 8.425 2.568c5.136 1.566 10.703 4.417 14.266 7.307 5.013 4.066 14.827 10.674 24.208 16.3 3.426 2.056 10.69 1.95 21.404-.315 13.144-2.778 23.723-2.388 34.506 1.27 5.07 1.72 10.162 3.982 11.318 5.025 1.155 1.043 5.437 3.215 9.514 4.826 4.078 1.61 12.497 6.117 18.71 10.013 17.127 10.74 16.17 10.434 22.676 7.282 3.096-1.5 7.102-2.73 8.9-2.73 1.8 0 5.393-.632 7.983-1.407 4.313-1.29 5.494-1.03 14.05 3.075 5.138 2.466 12.78 7.008 16.985 10.095 4.203 3.087 10.088 6.838 13.077 8.335 2.99 1.497 6.565 3.748 7.946 5.002 2.934 2.664 35.386 19.97 37.482 19.987.783.005 4.53 1.47 8.327 3.253 5.867 2.755 8.487 3.215 17.463 3.064 6.958-.117 10.874.328 11.48 1.306.982 1.585 2.222 1.616 43.22 1.07 13.807-.182 29.197-.19 34.2-.018l9.1.315v218.448l-7.216-.45c-6.976-.433-26.842-3.002-42.358-5.478-4.14-.66-10.636-1.452-14.433-1.758-3.796-.307-12.833-1.184-20.08-1.95-27.614-2.917-70.395.02-96.01 6.588-11.594 2.974-30.634 4.222-37.025 2.43-2.416-.68-7.543-2.13-11.393-3.225-9.427-2.68-11.035-2.618-26.258 1.007-7.248 1.725-16.03 3.164-19.516 3.196-3.485.033-6.98.702-7.768 1.488-.788.785-4.713 1.588-8.723 1.784-4.01.195-8.774.594-10.585.886-3.367.543-18.1-1.55-29.338-4.167-13.065-3.045-20.004-2.878-31.69.758-11.45 3.562-16.928 6.69-12.19 6.964 1.354.078 7.123.09 12.818.024 5.695-.065 10.354.37 10.354.967s7.482 1.07 16.628 1.053c9.146-.018 21.995.59 28.552 1.348 6.558.76 23.5 1.713 37.652 2.12 14.15.407 27.987.942 30.748 1.19 2.76.246 13.473.78 23.804 1.186 10.33.405 19.79 1.056 21.02 1.446 1.292.41 2.24.08 2.24-.778 0-1.083 2.13-1.247 7.844-.604 4.314.485 10.668.827 14.12.76 3.45-.07 9.098.452 12.55 1.157 3.45.706 17.853 1.56 32.003 1.9 14.152.34 27.99 1.207 30.75 1.928 7.335 1.914 11.87 2.285 12.644 1.035.873-1.41 10.574-1.45 10.574-.043 0 .582 2.4.85 5.334.6 7.282-.63 13.664-.447 15.083.427.648.4 8.32.64 17.05.535 8.73-.106 19.684.18 24.344.634l8.47.826V773.76H0V544.01zm591.75 108.926c9.665-.45 20.9-1.656 24.965-2.68 4.065-1.022 9.393-2.115 11.84-2.427 2.446-.314 4.745-.866 5.11-1.23.793-.792-6.233-6.7-8.046-6.763-2.108-.075-10.973-5.04-15.873-8.893-5.92-4.655-13.613-6.32-54.95-11.902-7.9-1.067-14.735-2.17-15.19-2.45-.457-.282-7.548-2.284-15.76-4.45-15.667-4.134-25.556-4.448-39.594-1.256-30.55 6.947-59.92 10.684-94.563 12.03-33.926 1.318-62.508 4.605-80.062 9.208-19.77 5.184-61.906 6.227-85.603 2.12-5.522-.958-13.147-2.09-16.943-2.513-3.797-.423-11.14-1.58-16.316-2.572-5.177-.992-25.79-2.96-45.81-4.374-20.017-1.415-39.547-3.217-43.4-4.005-7.04-1.442-10.038-1.156-28.42 2.71-7.012 1.475-15.404 4.616-15.404 5.766 0 1.06 3.01 3.614 4.637 3.93 3.486.678 21.15 1.788 36.15 2.27 8.974.29 23.376 1.122 32.004 1.85 8.63.728 26.7 1.475 40.16 1.66 13.462.186 38.312.796 55.223 1.357 16.912.56 33.996.92 37.965.798 5.62-.17 7.217.188 7.217 1.624 0 1.533 2.596 1.817 15.373 1.682 8.456-.09 26.387.58 39.847 1.49 24.294 1.638 34.116 2.003 87.226 3.243 15.186.353 36.537 1.222 47.447 1.93 10.91.706 20.275 1.014 20.813.682.538-.33 10.25-.68 21.58-.772 11.332-.093 23.634-.768 27.338-1.5 5.44-1.077 8.463-.927 15.718.78 4.94 1.162 11.592 2.165 14.78 2.228 3.188.064 6.563.597 7.5 1.184.937.587 2.55.84 3.586.565 1.036-.277 9.79-.87 19.453-1.32zm574.182-240.39c1.303-1.565 1.133-1.877-1.027-1.877-2.75 0-4.46 1.62-3.122 2.954 1.265 1.262 2.462.95 4.15-1.077zm63.38-192.774c-3.31-2.707-5.016-3.085-14.12-3.124-6.035-.026-10.353-.567-10.353-1.297 0-.688-2.26-1.25-5.022-1.25-3.625 0-5.02-.523-5.02-1.88 0-1.466-1.697-1.877-7.745-1.877-5.446 0-8.426-.616-10.04-2.073-2.136-1.928-2.295-1.928-2.295 0 0 1.583-1.186 2.073-5.02 2.073-3.626 0-5.02-.522-5.02-1.88 0-1.51-1.953-1.877-10.04-1.877-5.858 0-10.04-.52-10.04-1.252 0-.73-4.185-1.252-10.042-1.252-8.088 0-10.04-.365-10.04-1.878 0-1.356-1.394-1.878-5.02-1.878-3.626 0-5.02.522-5.02 1.878 0 2.49-1.22 2.374-3.313-.313-1.53-1.962-1.87-1.988-3.276-.254-2.333 2.878-13.492 1.81-13.492-1.293 0-2.015-1.982-2.326-20.08-3.147-11.045-.5-20.08-1.41-20.08-2.02 0-.61-2.26-1.11-5.02-1.11-3.927 0-5.032-.478-5.072-2.19-.036-1.563-.587-1.204-1.922 1.25-2.398 4.412-3.77 4.343-6.184-.312-1.103-2.127-2.886-3.693-4.11-3.61-2.015.134-2.013.184.03.717 1.21.316 2.197 1.124 2.197 1.797 0 .722-4.573 1.132-11.153 1-6.134-.125-11.723.125-12.42.554-.695.43-1.588-.06-1.984-1.09-.396-1.028-1.585-1.87-2.642-1.87s-1.922-.563-1.922-1.252c0-.69-2.26-1.252-5.02-1.252s-5.02.563-5.02 1.252c0 .69-2.26 1.252-5.02 1.252-3.626 0-5.02-.522-5.02-1.878 0-1.565-2.51-1.878-15.06-1.878-9.205 0-15.062-.487-15.062-1.252 0-.783-7.543-1.252-20.12-1.252-16.726 0-20.24-.317-20.842-1.878-.8-2.082-7.984-2.645-7.984-.626 0 .688-1.13 1.252-2.51 1.252s-2.51-.564-2.51-1.252c0-.69-1.412-1.252-3.138-1.252-1.952 0-3.137.71-3.137 1.878 0 2.417-3.047 2.417-5.47 0-2.15-2.146-4.572-2.478-4.572-.626 0 .688-2.26 1.252-5.02 1.252s-5.02-.564-5.02-1.252c0-.69-2.212-1.252-4.916-1.252-2.703 0-5.106-.57-5.338-1.267-.26-.776-11.974-1.58-30.226-2.078-16.39-.447-29.802-1.286-29.802-1.865 0-.578-9.037-1.052-20.08-1.052-17.014 0-20.082-.287-20.082-1.878 0-1.356-1.394-1.878-5.02-1.878-2.76 0-5.02.507-5.02 1.126 0 .62-2.683 1.35-5.96 1.623-4.325.36-6.394-.036-7.532-1.44-1.405-1.733-1.746-1.707-3.275.256-2.094 2.688-3.313 2.803-3.313.313 0-2.37-9.517-2.655-10.465-.313-.507 1.252-.653 1.252-.733 0-.117-1.85-7.63-2.16-7.63-.313 0 .688-2.54 1.25-5.647 1.25-3.106 0-5.647-.562-5.647-1.25 0-.73-4.184-1.253-10.04-1.253-5.858 0-10.04.522-10.04 1.252s-4.185 1.25-10.04 1.25c-5.858 0-10.042-.52-10.042-1.25 0-.69-2.258-1.253-5.02-1.253-2.76 0-5.02.564-5.02 1.252 0 .688-.846 1.25-1.882 1.25-1.035 0-1.882-.562-1.882-1.25 0-.69-1.412-1.253-3.138-1.253-1.725 0-3.137-.563-3.137-1.252 0-.73-4.183-1.252-10.04-1.252-5.857 0-10.04.522-10.04 1.252 0 .69-.605 1.252-1.345 1.252s-2.192.845-3.227 1.878c-1.035 1.033-2.69 1.878-3.675 1.878-.987 0-1.793-.845-1.793-1.878 0-1.513-1.953-1.878-10.04-1.878-5.858 0-10.04-.52-10.04-1.252 0-.73-4.184-1.252-10.04-1.252-5.858 0-10.042.522-10.042 1.252 0 .69 2.26 1.252 5.02 1.252 2.762 0 5.02.564 5.02 1.252 0 .688-2.258 1.25-5.02 1.25-2.76 0-5.02-.562-5.02-1.25 0-.766-5.857-1.253-15.06-1.253-8.408 0-15.06-.512-15.06-1.16 0-.638-4.942-1.342-10.982-1.565-8.594-.317-11.323.004-12.55 1.473-1.395 1.67-1.744 1.67-3.138 0-1.228-1.47-3.956-1.79-12.55-1.473-6.04.223-10.982.927-10.982 1.565 0 .638-4.518 1.16-10.04 1.16-5.857 0-10.04-.52-10.04-1.252 0-.73-4.184-1.252-10.04-1.252-9.28 0-10.042.195-10.042 2.56 0 2.417-.18 2.382-3.194-.625-4.382-4.372-7.34-4.253-6.404.256.392 1.894.407 2.74.03 1.878-.414-.952-3.134-1.565-6.94-1.565-3.892 0-6.974-.71-8.144-1.878-2.423-2.418-5.468-2.418-5.468 0 0 1.356-1.395 1.877-5.02 1.877-2.762 0-5.02.564-5.02 1.252 0 .688-2.26 1.25-5.02 1.25-4.184 0-5.02-.416-5.02-2.503 0-2.068-.838-2.504-4.81-2.504-3.843 0-5.144.628-6.486 3.13-2.195 4.09-5.172 3.97-7.834-.313-1.177-1.893-2.155-2.74-2.173-1.878-.018.887-1.62 1.565-3.693 1.565-2.014 0-3.946-.704-4.294-1.565-.36-.888-.676-.56-.732.757-.09 2.135-.9 2.25-10.138 1.433-7.025-.62-10.04-.47-10.04.496 0 2.06-20.07 1.878-20.12-.184-.026-.955-.69-.712-1.708.626-2.12 2.788-4.426 2.788-6.547 0-1.018-1.338-1.682-1.58-1.707-.626-.025.985-1.902 1.565-5.06 1.565-2.76 0-5.02.512-5.02 1.136 0 1.71-5.135.023-5.888-1.934-.862-2.24-4.152-2.203-4.152.047 0 2.083-11.075 3.468-13.438 1.68-.97-.734-2.536-.432-4.358.84-2.005 1.402-5.722 1.987-12.605 1.987-7.84 0-9.762.37-9.762 1.88 0 1.59-3.056 1.877-19.976 1.877-11.568 0-20.152.503-20.394 1.196-.233.665-11.43 1.585-25.205 2.07-13.633.48-24.787 1.352-24.787 1.934 0 .583-6.778 1.06-15.06 1.06-12.55 0-15.06.313-15.06 1.878 0 1.617-4.173 1.878-30.018 1.878-22.87 0-30.153-.373-30.59-1.565-.462-1.252-.91-1.252-2.24 0-1.37 1.29-1.286 1.565.47 1.565 1.44 0 2.135 1.02 2.135 3.13 0 2.817-.502 3.13-5.02 3.13-2.762 0-5.02-.563-5.02-1.252 0-.73-4.184-1.252-10.04-1.252-5.858 0-10.04.522-10.04 1.252s-4.185 1.252-10.042 1.252c-5.856 0-10.04-.522-10.04-1.252 0-1.557-9.674-1.674-10.25-.124-.23.62-4.794 1.532-10.143 2.026L0 198.116V0h1255.04v220.36h-6.798c-4.21 0-7.077.594-7.53 1.564-.586 1.252-.88 1.252-1.464 0-.87-1.86-4.288-2.11-4.288-.313 0 1.99-1.603 1.47-5.648-1.838zm-964.5-38.226c0-.69.566-1.252 1.257-1.252.69 0 1.254.563 1.254 1.252 0 .688-.565 1.252-1.255 1.252-.692 0-1.257-.564-1.257-1.252zm272.66-8.342c-2.7-1.087-1.714-2.927 1.568-2.927 1.952 0 3.137.71 3.137 1.878 0 1.87-1.717 2.252-4.706 1.05z" id="path3414" class="TqlsSYUC_7"></path>
        <path d="M0 708.654v-65.106h5.02c2.76 0 5.02.563 5.02 1.252 0 .692 3.286 1.252 7.346 1.252 12.835 0 22.775 1.444 22.775 3.31 0 1.87 9.51 2.493 10.25.67.23-.565 8.89-.502 19.245.14 10.354.642 31.25 1.324 46.436 1.516 15.187.19 31 .675 35.142 1.074 4.142.4 12.896.95 19.453 1.225 6.558.276 14.182 1.068 16.944 1.76 2.76.694 6.148 1.258 7.53 1.254 29.482-.076 45.717.782 46.36 2.452.57 1.486 2.448 1.688 9.803 1.054 19.105-1.647 63.048-.53 67.24 1.707 2.987 1.594 12.768 1.85 12.768.335 0-1.404 9.203-1.135 10.242.298.457.632 17.316 1.298 37.65 1.488 47.43.444 43.487.266 41.216 1.852-1.532 1.07-1.415 1.196.628.677 6.498-1.653 85.38-1.277 94.128.448 2.76.545 3.75 1.056 2.196 1.135-1.553.08-2.823.673-2.823 1.32s6.442 1.35 14.316 1.565c7.874.214 14.1.043 13.837-.38-.467-.75 8.826-2.035 21.42-2.964 3.452-.254 8.25-1.068 10.66-1.808 2.412-.74 6.7-1.345 9.527-1.345 2.83 0 7.87-.82 11.204-1.82 3.335-1 6.498-1.552 7.03-1.223 1.25.77 12.364-1.253 21.195-3.858 3.797-1.12 8.597-2.315 10.668-2.657 7.934-1.31 13.224-3.128 12.5-4.297-.416-.67-3.68-2.677-7.255-4.462-3.575-1.784-7.63-4.234-9.01-5.443-1.38-1.21-5.238-3.212-8.57-4.452-3.335-1.238-8.153-3.763-10.708-5.61-7.84-5.665-9.165-6.044-32.313-9.225-12.35-1.698-24.716-3.4-27.477-3.782-6.003-.832-11.166-2.03-26.983-6.268-14.666-3.93-24.333-4.075-44.333-.67-8.315 1.414-15.437 2.766-15.827 3.002-2.842 1.72-51.152 6.892-70.142 7.507-33.024 1.07-76.583 5.46-81.873 8.253-2.506 1.322-10.068 2.25-25.028 3.074-6.557.362-15.31.884-19.453 1.162-13.328.895-42.035-1.39-66.516-5.292-13.506-2.153-34.457-4.432-48.32-5.256-28.865-1.717-46.023-3.222-54.375-4.77-4.75-.878-8.953-.51-19.454 1.705-13.25 2.794-26.178 6.616-33.477 9.895-2.072.93-9.13 2.35-15.69 3.154-12.75 1.563-22.723 3.216-27.296 4.524L0 638.832V476.547c0-89.257.378-162.285.84-162.285.462 0 3.906 1.726 7.655 3.837 4.772 2.685 10.258 4.384 18.3 5.664 15.023 2.39 22.644 4.966 30.31 10.242 8.96 6.166 36.297 19.21 41.79 19.94 2.996.4 7.097-.313 11.548-2.003 3.795-1.44 9.726-2.978 13.177-3.415 3.452-.437 6.89-1.276 7.642-1.865.75-.59 9.505-2.19 19.453-3.562 36.733-5.058 44.042-6.4 56.994-10.454 21.373-6.692 30.443-8.758 40.757-9.282 5.885-.3 12.832-1.004 15.44-1.567 10.205-2.204 43.77 4.444 57.45 11.378 11.38 5.77 52.858 15.577 81.79 19.34 30.985 4.027 31.903 4.262 51.888 13.282 2.806 1.266 5.55 2.302 6.097 2.302.547 0 7.57 3.773 15.605 8.386 27.874 16 34.074 17.707 46.353 12.77 7.705-3.096 14.77-6.824 17.895-9.444 2.9-2.43 12.088-5.4 20.62-6.662 17.125-2.536 38.542-6.455 41.59-7.61 3.95-1.5 10.52-7.493 10.52-9.6 0-.84 1.13-2.128 2.51-2.865 1.38-.737 2.51-2.1 2.51-3.028 0-.928 2.594-3.585 5.766-5.903 3.172-2.32 8.79-6.86 12.487-10.092 4.806-4.204 9.1-6.61 15.074-8.452 9.997-3.08 13.706-3.193 21.22-.648 6.104 2.067 10.717.967 10.717-2.557 0-2.12 4.882-11.833 7.078-14.08.84-.86 2.75-1.565 4.243-1.565 2.973 0 8.05-3.403 14.48-9.704 2.283-2.238 5.102-4.07 6.263-4.07 1.163 0 4.766-.94 8.01-2.088 5.806-2.057 5.953-2.044 9.914.877 2.753 2.03 5.398 2.866 8.393 2.652 12.724-.91 13.39-.778 28.218 5.628 6.094 2.632 17.815 6.05 31.376 9.15 2.417.552 7.082 1.755 10.368 2.672 5.506 1.538 6.654 1.434 14.653-1.333l8.68-3.003 7.007 2.378c6.653 2.256 7.193 2.267 10.642.235 6.336-3.735 17.392-2.008 25.16 3.93 2.387 1.825 9.73 6.974 16.314 11.442l11.973 8.122 10.04-.043c5.522-.024 11.96-.72 14.306-1.55 7.24-2.556 20.1-1.846 31.03 1.714 5.437 1.77 10.81 4.054 11.94 5.075 1.132 1.02 5.013 2.976 8.625 4.345 3.613 1.37 12.76 6.41 20.327 11.202 7.567 4.79 14.86 8.71 16.207 8.71 1.347 0 3.773-.864 5.392-1.922 2.977-1.947 16.394-4.787 21.964-4.65 3.848.094 18.024 7.448 25.855 13.41 3.303 2.516 8.32 5.74 11.15 7.164 2.83 1.424 7.686 4.414 10.792 6.644 6.342 4.55 37.47 20.673 39.918 20.673.87 0 4.33 1.387 7.687 3.085 5.122 2.59 7.186 2.96 12.822 2.298 6.165-.723 6.576-.617 4.995 1.296-.947 1.145-1.23 2.12-.627 2.164 8.727.65 35.608.744 35.608.124 0-.457 1.412-1.013 3.138-1.235 3.274-.42 20.75-.776 25.1-.51 1.38.084 4.488.188 6.903.23 2.415.044 9.05.4 14.746.79l10.354.71v214.98l-7.216-.564c-9.204-.72-25.572-2.802-39.22-4.99-16.666-2.67-48.776-4.73-72.165-4.632-22.066.092-50.156 3.336-62.863 7.258-3.39 1.046-11.53 2.226-18.088 2.622-9.78.59-13.842.23-22.592-1.993-16.303-4.144-16.616-4.166-27.154-1.925-5.428 1.155-15.235 2.9-21.792 3.88-6.558.98-17.006 2.55-23.22 3.49-6.21.94-11.695 1.484-12.184 1.207-.49-.276-4.443-1.008-8.785-1.627-4.343-.62-13.367-2.38-20.055-3.912l-12.158-2.786-12.315 3.55c-6.773 1.954-14.506 4.627-17.185 5.942-2.732 1.34-8.88 2.692-14.005 3.08-7.696.58-9.796.294-13.328-1.814-3.457-2.064-5.707-2.396-12.83-1.894-6.806.48-10.44.007-17.15-2.228-7.426-2.474-9.235-2.654-14.194-1.408-3.126.785-10.375 1.433-16.11 1.44-5.734.008-16.92 1.23-24.858 2.717-7.94 1.487-18.314 2.614-23.056 2.504-5.937-.136-10.044.478-13.18 1.97-4.9 2.332-5.194 2.42-8.862 2.657-1.334.087-2.773 1.248-3.197 2.58-.423 1.333-1.732 2.69-2.907 3.016-1.176.326.686.56 4.138.52 3.452-.037 14.465.437 24.474 1.055 10.01.618 23.14.985 29.18.815 6.668-.188 10.98.18 10.98.94 0 .75 5.272 1.247 13.218 1.247 10.59 0 13.36.373 13.94 1.878.397 1.033 1.44 1.878 2.317 1.878.876 0 2.297-.845 3.156-1.878 1.74-2.092 12.517-2.635 14.496-.73 1.5 1.445 40.318 4.11 44.306 3.04 1.86-.498 3.34-.166 3.997.896.874 1.41 1.573 1.405 4.277-.04 3.315-1.768 8.09-1.422 35.21 2.557 9.91 1.454 16.447 1.763 45.495 2.147 17.172.227 20.395.566 20.395 2.148 0 3.872 7.588 1.28 9.17-3.13.434-1.214.707-.882.77.94.087 2.44.777 2.816 5.194 2.816 3.385 0 4.808-.46 4.24-1.376-.598-.967-.153-1.018 1.496-.172 2.42 1.243 25.304 3.29 33.096 2.963 2.416-.102 5.025-1.032 5.796-2.066 1.227-1.644 1.596-1.65 2.92-.06 1.124 1.352 5.46 1.96 16.794 2.354 8.404.293 20.362.924 26.574 1.404 6.213.48 16.944 1.014 23.846 1.188 6.903.174 16.645.774 21.65 1.332 5.323.595 9.1.548 9.1-.113 0-1.238 30.82-.826 33.885.452 1.035.432 8.377.72 16.315.642 7.938-.08 13.445.146 12.237.5-1.208.356-2.196 1.17-2.196 1.807 0 1.68 11.78 1.428 13.5-.29 1.1-1.097 1.972-1.02 3.593.314 1.657 1.365 2.26 1.41 2.667.198.642-1.9 4.624-2.035 7.932-.27 1.673.894 2.428.894 2.428 0 0-.712 2.26-1.295 5.02-1.295s5.02.563 5.02 1.252c0 .69 2.26 1.252 5.02 1.252h5.02V773.76H0v-65.106zm1212.134-38.416c.906-.362 1.988-.318 2.405.098.416.416-.325.712-1.648.658-1.462-.06-1.76-.357-.758-.756zm12.785-513.056c0-2.993-.29-3.09-10.355-3.444l-10.354-.363.362-3.443.362-3.443h-10.088c-8.13 0-10.088.363-10.088 1.877 0 2.867-2.29 2.25-5.793-1.565-2.123-2.312-3.376-2.93-3.81-1.878-.355.86-1.603 1.565-2.773 1.565-1.17 0-3.24 1.266-4.602 2.816l-2.475 2.817-.393-4.07-.394-4.07h-9.96c-8.018 0-9.96-.365-9.96-1.877 0-1.356-1.396-1.878-5.02-1.878-3.627 0-5.022-.52-5.022-1.878 0-1.46-1.677-1.878-7.57-1.878-5.57 0-7.76.496-8.29 1.878-.4 1.033-1.51 1.878-2.472 1.878-.96 0-1.748-.845-1.748-1.878 0-1.356-1.395-1.878-5.02-1.878-2.762 0-5.02-.592-5.02-1.315 0-.86-5.527-1.243-16.002-1.106-13.837.18-16.057-.064-16.408-1.814-.493-2.458-5.242-2.73-5.242-.3 0 .95-.912 2.48-2.026 3.403-1.744 1.443-2.435 1.203-4.96-1.726-2.47-2.866-3.933-3.402-9.27-3.402-5.006 0-6.335.426-6.335 2.03 0 1.75-.29 1.793-2.078.314-1.934-1.6-1.934-1.746 0-2.123 1.143-.222 2.078-1.208 2.078-2.19 0-1.25-1.51-1.787-5.02-1.787-3.625 0-5.02.522-5.02 1.878 0 1.356-1.394 1.878-5.02 1.878-3.626 0-5.02-.522-5.02-1.878 0-1.59-3.068-1.878-20.08-1.878-12.55 0-20.08-.47-20.08-1.252 0-1.918-19.722-1.618-20.52.313-.434 1.05-1.686.433-3.81-1.878l-3.162-3.444h-17.8c-17.785 0-17.803-.003-20.983-3.426-2.03-2.185-3.37-2.865-3.7-1.878-.64 1.918-20.388 2.204-20.388.296 0-1.956-29.77-1.65-30.48.313-.328.903-1.254.108-2.19-1.877-2.033-4.32-2.912-4.32-4.946 0-.935 1.985-1.86 2.78-2.188 1.878-.41-1.132-4.698-1.564-15.524-1.564-12.457 0-14.956-.314-14.956-1.88 0-1.465-1.697-1.877-7.745-1.877-5.445 0-8.425-.616-10.04-2.073-2.135-1.928-2.294-1.928-2.294 0 0 1.756-1.535 2.072-10.04 2.072-8.09 0-10.04-.366-10.04-1.88 0-1.644-8.09-1.877-65.263-1.877-42.67 0-65.262-.433-65.262-1.252 0-.687-2.258-1.25-5.02-1.25-2.76 0-5.02.563-5.02 1.25 0 .732-4.183 1.253-10.04 1.253-5.857 0-10.04-.52-10.04-1.252 0-.687-2.26-1.25-5.02-1.25s-5.02.563-5.02 1.25c0 .732-4.184 1.253-10.04 1.253-5.858 0-10.04-.52-10.04-1.252 0-.687-2.26-1.25-5.02-1.25-2.762 0-5.02.563-5.02 1.25 0 .784-7.532 1.253-20.082 1.253-18.27 0-20.085.198-20.13 2.19-.037 1.564-.59 1.204-1.923-1.25-2.36-4.34-3.736-4.34-6.095 0-1.335 2.454-1.887 2.814-1.923 1.25-.067-2.94-10.09-3.25-10.09-.312 0 1.358-1.395 1.88-5.02 1.88-2.762 0-5.02.563-5.02 1.25 0 .69-2.26 1.254-5.02 1.254-4.52 0-5.02-.313-5.02-3.13v-3.13H482.04c-14.84 0-20.122-.403-20.544-1.566-.327-.902-1.253-.107-2.188 1.878-2.034 4.32-2.912 4.32-4.947 0-.933-1.985-1.86-2.78-2.187-1.878-.323.89-2.69 1.565-5.483 1.565-4.55 0-4.916.26-4.916 3.517v3.517l-39.747.196c-30.823.153-39.976.558-40.77 1.805-.795 1.25-1.026 1.26-1.04.043-.016-1.213-7.77-1.564-34.534-1.564H291.17v3.13c0 3.437-3.033 4.337-4.22 1.252-.942-2.45-5.82-2.45-5.82 0 0 1.613-3.93 1.878-27.827 1.878-24.002 0-28.137.28-30.095 2.048-2.1 1.897-2.327 1.897-3.057 0-1-2.604-7.516-2.734-8.502-.17-.473 1.23-2.43 1.878-5.677 1.878-2.824 0-5.198.673-5.522 1.565-.327.902-1.254.107-2.19-1.878-2.033-4.32-2.91-4.32-4.945 0-.935 1.984-1.86 2.78-2.188 1.877-.674-1.858-10.4-2.15-10.4-.313 0 .765-5.856 1.252-15.06 1.252-10.877 0-15.06-.417-15.06-1.503 0-1.033-.405-1.098-1.296-.21-2.766 2.76.12 5.47 5.822 5.47 3.032 0 5.513.562 5.513 1.25 0 .69-3.106 1.253-6.903 1.253-3.796 0-6.902-.563-6.902-1.252 0-.69-1.168-1.252-2.595-1.252-1.985 0-2.415-.563-1.83-2.4.418-1.318.174-2.76-.544-3.203-.774-.478-1.305.497-1.305 2.398v3.204h-20.08c-17.014 0-20.082.287-20.082 1.878 0 2.94-10.023 2.628-10.09-.313-.036-1.562-.588-1.203-1.923 1.252-1.03 1.893-2.4 3.442-3.047 3.442-.646 0-2.018-1.55-3.048-3.443l-1.872-3.444-.05 3.443c-.046 3.16-.452 3.442-4.966 3.442-2.75 0-5.2-.69-5.562-1.565-.435-1.05-1.687-.433-3.81 1.878-3.504 3.815-5.793 4.433-5.793 1.565 0-1.356-1.395-1.878-5.02-1.878-3.626 0-5.02.522-5.02 1.878 0 1.033-.787 1.878-1.75 1.878-.96 0-2.072-.845-2.47-1.878-.942-2.45-5.82-2.45-5.82 0 0 1.357-1.395 1.878-5.02 1.878-4.493 0-5.02-.323-5.02-3.07v-3.07l-5.962 1.983c-3.28 1.092-6.943 2.473-8.14 3.07-1.2.6-3.035 1.088-4.08 1.088s-1.9.845-1.9 1.878c0 1.357-1.394 1.878-5.02 1.878H0V0h1255.04v156.505h-5.02c-3.626 0-5.02.522-5.02 1.878 0 1.513-1.952 1.878-10.04 1.878-9.83 0-10.04-.064-10.04-3.078zm-913.67-35.108c0-1.033.916-1.878 2.036-1.878 1.668 0 1.754.34.474 1.878-.86 1.033-1.776 1.878-2.036 1.878s-.474-.845-.474-1.878z" id="path3412" class="TqlsSYUC_8"></path>
        <path d="M0 729.313v-44.448h10.04c8.088 0 10.04.366 10.04 1.878 0 1.357 1.395 1.878 5.02 1.878 2.762 0 5.02.565 5.02 1.253 0 .783 7.53 1.253 20.082 1.253 12.55 0 20.08.47 20.08 1.252 0 .688 2.26 1.252 5.02 1.252 2.762 0 5.02-.564 5.02-1.252 0-.73 4.15-1.252 9.936-1.252 6.748 0 10.155-.503 10.618-1.566.376-.86.36-.015-.03 1.88l-.715 3.442h15.198c12.67 0 15.196-.312 15.196-1.878 0-1.565 2.51-1.878 15.06-1.878s15.06.313 15.06 1.878c0 1.59 3.057 1.878 19.977 1.878 12.61 0 20.136.476 20.41 1.29.665 1.995 38.966 2.243 39.63.258.616-1.846 10.348-2.125 10.348-.296 0 .688 2.26 1.252 5.02 1.252 3.626 0 5.02.52 5.02 1.878 0 2.376 9.567 2.666 10.356.313.756-2.254 88.99-2.225 89.744.03.613 1.834 10.344 2.1 10.344.283 0-.69 2.26-1.252 5.02-1.252s5.02.563 5.02 1.252c0 .73 4.184 1.252 10.04 1.252 5.857 0 10.04.522 10.04 1.252 0 .69 2.79 1.252 6.202 1.252 3.41 0 6.55-.563 6.977-1.252.427-.69 2.155-1.252 3.84-1.252 1.886 0 3.064-.722 3.064-1.878 0-1.497 2.103-1.93 10.354-2.14 29.55-.742 39.847-.012 39.847 2.825 0 .655 2.26 1.192 5.02 1.192s5.02.605 5.02 1.344c0 2.526 42.782.027 56.79-3.316 2.198-.525 3.452-.316 3.452.574 0 .913 3.495 1.398 10.08 1.398 7.802 0 10.243-.425 10.802-1.878.583-1.518 3.468-1.878 15.02-1.878 8.696 0 14.3-.49 14.3-1.252 0-.73 4.182-1.252 10.04-1.252 5.856 0 10.04.52 10.04 1.252 0 .765 5.857 1.252 15.06 1.252h15.06v3.756c0 3.547.28 3.756 5.02 3.756 3.626 0 5.02-.522 5.02-1.878 0-1.356 1.395-1.878 5.02-1.878 3.627 0 5.02-.522 5.02-1.878 0-1.513 1.954-1.878 10.042-1.878h10.04v7.512h65.262c42.67 0 65.262.433 65.262 1.252 0 .793 9.204 1.252 25.1 1.252 15.898 0 25.102-.46 25.102-1.252 0-.73 4.183-1.252 10.04-1.252 5.857 0 10.04.522 10.04 1.252 0 .69 2.26 1.252 5.02 1.252 3.626 0 5.02.522 5.02 1.878 0 2.27 3.262 2.508 4.29.313.584-1.252.877-1.252 1.463 0 .51 1.09 4.324 1.565 12.55 1.565 9.67 0 11.82-.34 11.82-1.878 0-1.513 1.952-1.878 10.04-1.878 9.873 0 10.04.052 10.04 3.13s.168 3.13 10.04 3.13c5.857 0 10.04-.52 10.04-1.252 0-.782 7.53-1.252 20.082-1.252 17.012 0 20.08.287 20.08 1.878 0 1.513 1.952 1.878 10.04 1.878 8.09 0 10.04-.365 10.04-1.878 0-1.356 1.395-1.878 5.02-1.878 2.762 0 5.02-.563 5.02-1.252 0-.69 2.26-1.252 5.02-1.252 2.762 0 5.02.563 5.02 1.252 0 .783 7.532 1.252 20.082 1.252 17.013 0 20.08.287 20.08 1.878 0 1.357 1.395 1.878 5.02 1.878 3.627 0 5.02-.52 5.02-1.878 0-1.59 3.07-1.878 20.082-1.878 17.013 0 20.08.287 20.08 1.878 0 1.64 6.973 1.878 55.222 1.878 35.978 0 55.222.437 55.222 1.252 0 .69 2.26 1.252 5.02 1.252h5.02v56.342H0v-44.447zm632.54-26.293c0-1.565-2.51-1.878-15.06-1.878s-15.06.313-15.06 1.878 2.51 1.878 15.06 1.878 15.06-.313 15.06-1.878zm12.55-58.848c-3.796-.78-8.596-2.34-10.667-3.463-2.07-1.124-5.742-2.98-8.158-4.123-12.738-6.03-17.29-8.345-20.718-10.536-2.785-1.778-10.352-3.255-28.866-5.63-26.93-3.455-34.098-4.78-54.583-10.084-13.746-3.56-24.11-3.762-37.844-.743-3 .66-11.385 2.133-18.633 3.274-7.248 1.14-17.98 2.897-23.846 3.905-5.867 1.007-23.657 2.36-39.534 3.006-34.818 1.417-71.88 4.432-84.715 6.89-25.14 4.818-39.022 5.918-64.007 5.073-13.46-.454-27.297-1.357-30.748-2.006-23.528-4.422-46.01-7.252-64.635-8.136-19.394-.92-46.407-3.12-56.05-4.565-6.778-1.015-11.1-.96-17.572.22-9.475 1.73-35.112 8.49-38.077 10.038-2.845 1.49-9.25 2.472-24.473 3.758-7.593.642-15.64 1.706-17.884 2.364L0 634.61V314.045l7.844 4.323c5.045 2.78 10.34 4.6 14.84 5.1 13.573 1.51 25.066 4.798 31.054 8.883 8.483 5.786 20.577 12.192 33.22 17.597 9.452 4.04 11.912 4.61 17.2 3.985 3.396-.4 7.47-1.548 9.053-2.55 1.585-1 5.902-2.167 9.594-2.59 3.693-.425 7.646-1.27 8.786-1.878 2.383-1.272 5.246-1.77 25.918-4.515 25.073-3.328 37.077-5.584 49.574-9.318 21.258-6.353 26.928-7.912 30.12-8.285 24.67-2.88 40.74-3.194 52.085-1.02 11.797 2.26 25.29 6.072 28.786 8.13 6.067 3.57 16.815 6.985 38.986 12.387 18.834 4.588 30.633 6.642 57.586 10.022 12.492 1.565 24.918 4.465 29.638 6.915 1.726.896 6.244 2.868 10.04 4.384 3.797 1.514 13.68 6.464 21.964 11 23.864 13.062 25.925 13.96 33.902 14.784 6.675.69 8.52.337 16-3.045 4.648-2.104 10.853-5.528 13.788-7.61 5.654-4.01 11.67-5.9 24.543-7.704 4.352-.61 10-1.688 12.552-2.395 2.55-.706 6.616-1.326 9.032-1.376 10.61-.22 27.61-7.698 27.61-12.144 0-.613 1.395-2.42 3.1-4.02 1.704-1.596 2.85-3.304 2.547-3.793-.633-1.023 7.13-7.322 12.23-9.924 1.894-.966 4.303-3.065 5.353-4.664 3.808-5.8 23.148-12.698 31.31-11.17 2.447.457 4.45 1.23 4.45 1.714.002.485 1.95 1.02 4.327 1.19 4.605.326 8.222-2.96 8.222-7.473 0-1.223.565-2.224 1.255-2.224s1.255-.77 1.255-1.71c0-3.26 5.133-8.44 7.592-7.66 1.432.453 3.305-.25 4.894-1.834 1.416-1.413 3.066-2.57 3.667-2.57.6 0 3.284-2.252 5.962-5.006 2.792-2.872 6.054-5.007 7.65-5.008 1.53 0 4.778-.95 7.22-2.112 4.28-2.037 4.565-2.017 8.074.57 4.955 3.654 9.247 4.54 14.176 2.925 3.47-1.137 5.646-.85 13.365 1.76 5.07 1.714 10.72 3.97 12.55 5.01 3.2 1.82 17.913 5.997 28.433 8.075 2.76.545 7.413 1.878 10.337 2.962 4.962 1.84 5.786 1.81 12.34-.438 8.803-3.023 13.414-3.198 20.845-.794 5.52 1.786 6.037 1.755 8.663-.518 5.42-4.688 17.673-1.812 28.58 6.71 3.898 3.045 9.01 6.523 11.36 7.728 2.35 1.204 6.53 3.82 9.288 5.814 5.916 4.276 13.547 4.748 27.856 1.725 4.832-1.02 11.65-1.857 15.154-1.857 7.177 0 23.212 4.98 28.506 8.853 1.924 1.41 5.866 3.394 8.76 4.413 5.505 1.937 6.396 2.43 23.29 12.846 5.744 3.542 11.427 6.44 12.627 6.44 1.2 0 4.563-1.146 7.473-2.55 2.91-1.402 5.982-2.433 6.825-2.29.843.142 4.24-.186 7.547-.73 8.984-1.477 15.263 1.197 34.412 14.656 4.66 3.275 9.612 6.315 11.006 6.756 1.394.44 5.023 2.696 8.064 5.012 3.04 2.316 10.383 6.553 16.316 9.416 5.932 2.862 12.088 6.04 13.68 7.064 1.59 1.023 6.392 3.13 10.667 4.683 4.276 1.553 12.575 4.57 18.442 6.705 5.867 2.135 11.356 3.62 12.196 3.302.84-.32 1.877-.018 2.302.67.426.685 1.786.926 3.023.535 1.564-.497 2.454.07 2.924 1.863.6 2.29 1.526 2.543 8.322 2.275 6.875-.27 7.36-.46 4.814-1.87-4.01-2.222-.9-2.033 4.657.283 2.564 1.07 4.294 1.35 3.846.627-.467-.752.26-1.316 1.694-1.316 1.38 0 2.86.564 3.286 1.253.977 1.576 4.393 1.648 4.393.092 0-.638-.99-1.41-2.198-1.716-1.208-.306 6.39-.445 16.884-.308 10.494.136 18.79-.22 18.438-.79-.354-.57-2.68-1.035-5.17-1.035-2.49 0-4.15-.377-3.69-.837 1.233-1.23 13.386-1.457 13.386-.252 0 .564 1.835.753 4.08.42 2.242-.335 3.372-.273 2.51.135-.864.408-1.553 1.963-1.532 3.455.034 2.445.165 2.496 1.318.522.703-1.205 2.52-2.182 4.04-2.172 2.243.016 2.408.247.88 1.233-1.256.81-1.36 1.22-.315 1.234 1.244.015 1.57 21.537 1.57 103.386 0 56.852-.43 103.102-.957 102.777-.527-.325-5.186-.93-10.354-1.345-20.11-1.614-28.072-2.51-38.264-4.303-6.963-1.226-29.272-2.984-58.405-4.603-10.306-.573-49.363 2.11-55.175 3.79-1.035.3-3.577.85-5.648 1.225-37.988 6.872-39.225 6.925-57.122 2.422l-12.94-3.255-14.543 2.59c-8 1.426-17.93 3.206-22.073 3.956-22.92 4.15-34.685 3.757-60.635-2.03l-10.433-2.326-14.04 3.55c-7.723 1.95-14.606 3.97-15.296 4.482-2.19 1.63-12.826 3.8-18.617 3.8-3.07 0-7.927-1.047-10.792-2.327-3.938-1.76-6.48-2.095-10.412-1.377-3.832.7-8.112.193-16.238-1.92-10.8-2.806-11.46-2.83-31.115-1.19-11.045.92-22.21 2.264-24.814 2.985-2.604.72-6.992 1.353-9.753 1.406-2.76.05-6.15.538-7.53 1.08-1.478.582-4.5.292-7.35-.704-4.422-1.547-8.363-1.413-13.36.455-1.034.388-9.223.86-18.197 1.053-19.075.407-22.25.8-28.512 3.52-2.566 1.115-5.813 2.027-7.216 2.027-1.403 0-2.55.51-2.55 1.134 0 .624-2.965 1.532-6.59 2.017-3.623.487-8.283 1.563-10.353 2.393-2.876 1.152-5.4 1.173-10.67.09zM1174.72 416.93c0-1.378.216-2.505.48-2.505.265 0 .777 1.127 1.138 2.504.36 1.376.145 2.503-.48 2.503-.626 0-1.138-1.127-1.138-2.504zm16.943 0c.427-.69 2.296-1.213 4.154-1.165 3.015.078 3.108.203.867 1.164-3.486 1.494-5.945 1.494-5.02 0z" id="path3410" class="TqlsSYUC_9"></path>
    </g>
<style>.TqlsSYUC_0{stroke-dasharray:3955 3957;stroke-dashoffset:3956;animation:TqlsSYUC_draw 3333ms linear 0ms forwards;}.TqlsSYUC_1{stroke-dasharray:3955 3957;stroke-dashoffset:3956;animation:TqlsSYUC_draw 3333ms linear 185ms forwards;}.TqlsSYUC_2{stroke-dasharray:4058 4060;stroke-dashoffset:4059;animation:TqlsSYUC_draw 3333ms linear 370ms forwards;}.TqlsSYUC_3{stroke-dasharray:6432 6434;stroke-dashoffset:6433;animation:TqlsSYUC_draw 3333ms linear 555ms forwards;}.TqlsSYUC_4{stroke-dasharray:6734 6736;stroke-dashoffset:6735;animation:TqlsSYUC_draw 3333ms linear 740ms forwards;}.TqlsSYUC_5{stroke-dasharray:7449 7451;stroke-dashoffset:7450;animation:TqlsSYUC_draw 3333ms linear 925ms forwards;}.TqlsSYUC_6{stroke-dasharray:7964 7966;stroke-dashoffset:7965;animation:TqlsSYUC_draw 3333ms linear 1111ms forwards;}.TqlsSYUC_7{stroke-dasharray:8452 8454;stroke-dashoffset:8453;animation:TqlsSYUC_draw 3333ms linear 1296ms forwards;}.TqlsSYUC_8{stroke-dasharray:8865 8867;stroke-dashoffset:8866;animation:TqlsSYUC_draw 3333ms linear 1481ms forwards;}.TqlsSYUC_9{stroke-dasharray:6015 6017;stroke-dashoffset:6016;animation:TqlsSYUC_draw 3333ms linear 1666ms forwards;}@keyframes TqlsSYUC_draw{100%{stroke-dashoffset:0;}}@keyframes TqlsSYUC_fade{0%{stroke-opacity:1;}95.65217391304348%{stroke-opacity:1;}100%{stroke-opacity:0;}}</style></svg>
