<?xml version="1.0" encoding="UTF-8" standalone="no"?>
<svg
   xmlns:dc="http://purl.org/dc/elements/1.1/"
   xmlns:cc="http://creativecommons.org/ns#"
   xmlns:rdf="http://www.w3.org/1999/02/22-rdf-syntax-ns#"
   xmlns:svg="http://www.w3.org/2000/svg"
   xmlns="http://www.w3.org/2000/svg"
   xmlns:sodipodi="http://sodipodi.sourceforge.net/DTD/sodipodi-0.dtd"
   xmlns:inkscape="http://www.inkscape.org/namespaces/inkscape"
   viewBox="0 0 80 80"
   stroke-miterlimit="1"
   id="svg2"
   version="1.1"
   inkscape:version="0.91 r13725"
   sodipodi:docname="git_logo.svg"
   width="80"
   height="80"
   style="clip-rule:evenodd;stroke:#cccccc;stroke-linejoin:round;stroke-miterlimit:1">
  <metadata
     id="metadata10">
    <rdf:RDF>
      <cc:Work
         rdf:about="">
        <dc:format>image/svg+xml</dc:format>
        <dc:type
           rdf:resource="http://purl.org/dc/dcmitype/StillImage" />
        <dc:title></dc:title>
      </cc:Work>
    </rdf:RDF>
  </metadata>
  <defs
     id="defs8" />
  <sodipodi:namedview
     pagecolor="#ffffff"
     bordercolor="#666666"
     borderopacity="1"
     objecttolerance="10"
     gridtolerance="10"
     guidetolerance="10"
     inkscape:pageopacity="0"
     inkscape:pageshadow="2"
     inkscape:window-width="1920"
     inkscape:window-height="1058"
     id="namedview6"
     showgrid="false"
     fit-margin-top="0"
     fit-margin-left="0"
     fit-margin-right="0"
     fit-margin-bottom="0"
     inkscape:showpageshadow="false"
     inkscape:zoom="17.886242"
     inkscape:cx="5.5072356"
     inkscape:cy="11.49707"
     inkscape:window-x="1912"
     inkscape:window-y="-8"
     inkscape:window-maximized="1"
     inkscape:current-layer="svg2" />
  <path
     d="M 16.205236,7.7834855 9.2152356,0.79848551 c -0.403,-0.402 -1.056,-0.402 -1.46,0 l -1.448,1.44999999 1.84,1.84 c 0.43,-0.144 0.92,-0.047 1.26,0.294 0.344,0.343 0.44,0.838 0.292,1.267 l 1.7740004,1.773 c 0.43,-0.148 0.925,-0.052 1.268,0.29 0.48,0.48 0.48,1.256 0,1.735 -0.48,0.48 -1.256,0.48 -1.735,0 -0.36,-0.36 -0.45,-0.89 -0.27,-1.33 l -1.6590004,-1.651 0,4.3520005 c 0.117,0.057 0.227,0.134 0.325,0.23 0.475,0.48 0.475,1.255 0,1.734 -0.48,0.48 -1.26,0.48 -1.74,0 -0.48,-0.48 -0.48,-1.254 0,-1.733 0.12,-0.12 0.257,-0.21 0.403,-0.27 l 0,-4.3930005 c -0.145,-0.06 -0.282,-0.148 -0.4,-0.267 -0.363,-0.363 -0.45,-0.895 -0.264,-1.34 l -1.81,-1.816 -4.794,4.787 c -0.4,0.404 -0.4,1.056 0,1.46 l 6.992,6.9840005 c 0.402,0.403 1.055,0.403 1.458,0 L 16.205236,9.2414855 c 0.403,-0.402 0.403,-1.055 0,-1.458"
     id="path4"
     inkscape:connector-curvature="0"
     style="fill-rule:nonzero;stroke-width:0.1;stroke-miterlimit:1;stroke-dasharray:none;fill:none;stroke:#ccc;stroke-opacity:1" />
</svg>
