<?xml version="1.0" encoding="UTF-8" standalone="no"?>
<svg
   xmlns:dc="http://purl.org/dc/elements/1.1/"
   xmlns:cc="http://creativecommons.org/ns#"
   xmlns:rdf="http://www.w3.org/1999/02/22-rdf-syntax-ns#"
   xmlns:svg="http://www.w3.org/2000/svg"
   xmlns="http://www.w3.org/2000/svg"
   xmlns:sodipodi="http://sodipodi.sourceforge.net/DTD/sodipodi-0.dtd"
   xmlns:inkscape="http://www.inkscape.org/namespaces/inkscape"
   width="1000"
   height="100"
   viewBox="0 0 1000 100"
   id="svg2"
   version="1.1"
   inkscape:version="0.91 r13725"
   sodipodi:docname="transition_bottom.svg">
  <metadata
     id="metadata10">
    <rdf:RDF>
      <cc:Work
         rdf:about="">
        <dc:format>image/svg+xml</dc:format>
        <dc:type
           rdf:resource="http://purl.org/dc/dcmitype/StillImage" />
        <dc:title />
      </cc:Work>
    </rdf:RDF>
  </metadata>
  <defs
     id="defs8" />
  <sodipodi:namedview
     pagecolor="#ffffff"
     bordercolor="#666666"
     borderopacity="1"
     objecttolerance="10"
     gridtolerance="10"
     guidetolerance="10"
     inkscape:pageopacity="0"
     inkscape:pageshadow="2"
     inkscape:window-width="1920"
     inkscape:window-height="1018"
     id="namedview6"
     showgrid="false"
     inkscape:showpageshadow="false"
     inkscape:zoom="2.8284271"
     inkscape:cx="772.74611"
     inkscape:cy="46.992226"
     inkscape:window-x="-8"
     inkscape:window-y="-8"
     inkscape:window-maximized="1"
     inkscape:current-layer="svg2" />
  <g
     inkscape:groupmode="layer"
     id="layer2"
     inkscape:label="Layer 1" />
  <g
     inkscape:groupmode="layer"
     id="layer1"
     inkscape:label="Layer 2" />
  <path
     sodipodi:nodetypes="cssscsscscccssssscsssssssscccc"
     inkscape:connector-curvature="0"
     id="path4165"
     d="M -3,56 C 35,36 29,26 56,34 62.75,36 68.058594,36.160156 72.490234,31.478516 76.921875,26.796875 81.693138,16.41497 88.8125,15.71875 99.805136,14.643752 97.09726,10.821895 106.66602,5.2089844 125.82671,16.202063 129.40201,9.2061407 145.90625,23.125 c 66.08777,55.73515 23.99893,45.175271 95.125,42 56,-2.5 104.52208,-54.315418 104.52208,-54.315418 35.31719,18.835832 38.35559,51.268991 62.44906,54.961396 28.4532,4.360549 42.28008,-15.929861 88.96299,-46.386997 29.17795,20.919269 50.34733,-10.9409162 60.3274,-12.6542309 9.98006,-1.7133147 51.02367,41.9551879 57.19372,43.6368139 8.28117,2.954497 15.7437,-3.037378 17.94863,-13.237424 2.54664,-11.780735 6.01542,31.148439 22.10527,-19.342661 3.62354,-11.3709279 15.85721,22.4962 20.83447,29.116619 7.43912,9.895037 15.23007,19.165826 21.81889,17.205264 9.2912,-2.764679 14.19456,-2.124508 18.07287,-3.011427 6.95283,-1.590021 11.36078,-11.633504 17.37454,-21.987508 5.68821,1.293405 11.51283,3.439807 17.63742,6.034098 6.12459,2.594291 12.54913,5.636471 19.43717,8.721433 6.88804,3.084961 14.23957,6.212703 22.21814,8.978118 7.97856,2.765415 16.58415,5.168503 25.98031,6.804157 9.39616,1.635654 19.58288,2.503872 30.7237,2.199548 11.14082,-0.304323 23.23575,-1.78119 36.4483,-4.835707 13.21256,-3.054517 19.33083,-13.584187 37.49727,-26.675981 35.56199,-25.628046 40.28295,88.637317 61.09419,-17.71288 3.70436,-18.9300959 20.39253,90.141477 26.55973,84.034637 L 1000,106 -7,106 Z"
     style="fill:#141926;fill-opacity:1;fill-rule:evenodd;stroke:none;stroke-width:1px;stroke-linecap:butt;stroke-linejoin:miter;stroke-opacity:0" />
  <path
     style="fill:#141926;fill-opacity:1;fill-rule:evenodd;stroke:none;stroke-width:1px;stroke-linecap:butt;stroke-linejoin:miter;stroke-opacity:1"
     d="m 757.79289,83.40901 c 43.77974,-17.374204 36.44914,2.001239 53.01041,-38.534642 41.99956,52.464418 27.5125,36.811294 56.16117,4.853554 C 892.58792,86.137973 897.97907,69.67789 911,85 l -83.5,20 z"
     id="path3338"
     inkscape:connector-curvature="0"
     sodipodi:nodetypes="cccccc" />
</svg>
