<?xml version="1.0" encoding="UTF-8" standalone="no"?>
<svg
   xmlns:dc="http://purl.org/dc/elements/1.1/"
   xmlns:cc="http://creativecommons.org/ns#"
   xmlns:rdf="http://www.w3.org/1999/02/22-rdf-syntax-ns#"
   xmlns:svg="http://www.w3.org/2000/svg"
   xmlns="http://www.w3.org/2000/svg"
   xmlns:sodipodi="http://sodipodi.sourceforge.net/DTD/sodipodi-0.dtd"
   xmlns:inkscape="http://www.inkscape.org/namespaces/inkscape"
   width="1000"
   height="100"
   viewBox="0 0 1000 100"
   id="svg2"
   version="1.1"
   inkscape:version="0.91 r13725"
   sodipodi:docname="transition.svg">
  <metadata
     id="metadata10">
    <rdf:RDF>
      <cc:Work
         rdf:about="">
        <dc:format>image/svg+xml</dc:format>
        <dc:type
           rdf:resource="http://purl.org/dc/dcmitype/StillImage" />
        <dc:title />
      </cc:Work>
    </rdf:RDF>
  </metadata>
  <defs
     id="defs8" />
  <sodipodi:namedview
     pagecolor="#ffffff"
     bordercolor="#666666"
     borderopacity="1"
     objecttolerance="10"
     gridtolerance="10"
     guidetolerance="10"
     inkscape:pageopacity="0"
     inkscape:pageshadow="2"
     inkscape:window-width="1920"
     inkscape:window-height="1018"
     id="namedview6"
     showgrid="false"
     inkscape:showpageshadow="false"
     inkscape:zoom="8"
     inkscape:cx="797.49355"
     inkscape:cy="50.016286"
     inkscape:window-x="-8"
     inkscape:window-y="-8"
     inkscape:window-maximized="1"
     inkscape:current-layer="svg2" />
  <path
     d="M -0.50546025,41.124772 C 81.615361,-28.987737 24.983272,80.686154 47.152724,86.834565 81.976174,96.492399 22.208574,3.6552768 77.594888,20.128463 c 62.801742,18.678708 5.907277,74.662956 36.414892,73.540603 23.9714,-0.881891 -17.924191,-72.858715 23.0577,-45.47047 26.50073,17.710473 7.62898,39.347207 39.88884,-2.310543 20.81197,-26.874874 -7.78707,32.169637 11.56752,34.308709 27.43328,3.03193 -28.49107,-30.074325 36.1552,-41.307655 3.93523,-0.68381 4.17035,-1.336883 8.12653,-0.787116 41.17593,5.721972 -9.1131,53.777298 15.87406,53.850444 28.52861,0.08351 -5.64421,-30.993935 28.28513,-64.433031 48.90808,-48.201408 -14.69346,44.769529 27.90997,43.068302 46.45613,-1.855071 -34.61916,-82.502498 50.2044,-24.137981 46.21993,31.802532 22.81783,45.079246 32.5644,50.799452 6.57276,3.857523 11.8329,-5.675784 16.90946,-19.484179 5.07657,-13.808395 9.96957,-31.891884 15.80807,-45.134738 5.83849,-13.242854 11.03816,-16.609315 21.48104,-16.090932 22.97724,1.140588 27.88114,-0.552802 19.78628,45.726928 -6.81069,38.937974 18.76857,9.758626 11.24772,-16.167294 -17.1917,-59.263302 42.5183,0.610205 78.73148,15.881324 7.96189,3.357536 81.08864,-61.33449873 50.87754,-1.527182 -20.89461,41.363956 37.87256,22.9617 26.41539,2.523721 -10.19953,-18.194528 -18.00637,-18.48674 42.81303,-8.284506 16.12059,2.704171 13.54137,-2.741204 17.85683,-4.815244 21.87663,-10.514074 9.70748,16.791843 10.16334,26.124727 0.15549,3.183197 -1.65454,6.156667 -2.58155,9.205861 -0.61369,2.018636 -2.64866,4.015967 -1.97226,6.014466 1.1103,3.280512 5.1282,6.279791 8.56802,5.877065 4.95649,-0.580295 13.09836,-7.587341 10.05583,-11.091103 -10.9808,-12.64543 -8.00991,-38.450052 -3.12825,-49.303172 19.00679,-42.2566658 18.01182,-26.529763 32.07427,-2.365222 25.96839,44.623394 40.53034,24.386469 46.50978,10.225728 23.89126,-56.580241 75.79571,-12.69712 36.12387,18.056106 -18.00305,13.955782 -0.31783,30.298213 16.10952,33.256195 9.6291,1.73386 32.59165,2.598532 39.71673,-11.424005 12.3242,-24.25467 -23.74788,-29.019705 -21.78598,-45.173824 1.95541,-16.100627 4.59045,-51.557012 13.88849,-21.629873 13.69806,44.08924 102.6592,-4.933935 60.45827,25.565286 -38.80771,28.046887 11.48779,46.612313 54.76903,30.588277 3.10852,-1.150869 14.46872,-3.696233 3.32462,-17.05071 -7.94137,-9.516469 -42.35633,-37.935855 5.05124,-24.395405 8.11456,2.317671 3.39016,-16.098771 4.61606,-21.873067 1.226,-5.7742952 2.0191,-9.4836957 2.0191,-9.4836957 L -0.50553022,0.49486227 Z"
     id="path4"
     inkscape:connector-curvature="0"
     style="fill:#030305;fill-rule:evenodd;stroke:#030305;stroke-width:0.98297888"
     sodipodi:nodetypes="csssssssssssssssssssssssaaaassssssssssssssccc" />
</svg>
